NotoSans-ExtraBold.ufo
<glyph name="hyphen" format="2">
  <advance width="651"/>
  <unicode hex="002D"/>
  <outline>
    <contour>
      <point x="43" y="393" type="line"/>
      <point x="608" y="393" type="line"/>
      <point x="608" y="705" type="line"/>
      <point x="43" y="705" type="line"/>
    </contour>
  </outline>
</glyph>
<glyph name="less" format="2">
  <advance width="1200"/>
  <unicode hex="003C"/>
  <outline>
    <contour>
      <point x="1104" y="178" type="line"/>
      <point x="1104" y="473" type="line"/>
      <point x="483" y="725" type="line"/>
      <point x="1104" y="1008" type="line"/>
      <point x="1104" y="1305" type="line"/>
      <point x="92" y="799" type="line"/>
      <point x="92" y="627" type="line"/>
    </contour>
  </outline>
</glyph>
<glyph name="at" format="2">
  <advance width="1837"/>
  <unicode hex="0040"/>
  <outline>
    <contour>
      <point x="1755" y="756" type="curve"/>
      <point x="1755" y="1204"/>
      <point x="1442" y="1481"/>
      <point x="969" y="1481" type="curve" smooth="yes"/>
      <point x="428" y="1481"/>
      <point x="82" y="1102"/>
      <point x="82" y="610" type="curve" smooth="yes"/>
      <point x="82" y="137"/>
      <point x="389" y="-154"/>
      <point x="913" y="-154" type="curve" smooth="yes"/>
      <point x="1096" y="-154"/>
      <point x="1272" y="-119"/>
      <point x="1413" y="-59" type="curve"/>
      <point x="1413" y="170" type="line"/>
      <point x="1249" y="111"/>
      <point x="1051" y="74"/>
      <point x="899" y="74" type="curve" smooth="yes"/>
      <point x="537" y="74"/>
      <point x="354" y="283"/>
      <point x="354" y="606" type="curve" smooth="yes"/>
      <point x="354" y="985"/>
      <point x="567" y="1257"/>
      <point x="973" y="1257" type="curve" smooth="yes"/>
      <point x="1317" y="1257"/>
      <point x="1491" y="1063"/>
      <point x="1491" y="758" type="curve" smooth="yes"/>
      <point x="1491" y="592"/>
      <point x="1448" y="451"/>
      <point x="1374" y="451" type="curve" smooth="yes"/>
      <point x="1346" y="451"/>
      <point x="1325" y="473"/>
      <point x="1325" y="537" type="curve" smooth="yes"/>
      <point x="1325" y="573"/>
      <point x="1327" y="616"/>
      <point x="1327" y="631" type="curve"/>
      <point x="1348" y="1053" type="line"/>
      <point x="1262" y="1083"/>
      <point x="1124" y="1114"/>
      <point x="991" y="1114" type="curve" smooth="yes"/>
      <point x="657" y="1114"/>
      <point x="479" y="909"/>
      <point x="479" y="639" type="curve" smooth="yes"/>
      <point x="479" y="395"/>
      <point x="604" y="233"/>
      <point x="858" y="233" type="curve" smooth="yes"/>
      <point x="971" y="233"/>
      <point x="1057" y="285"/>
      <point x="1118" y="352" type="curve"/>
      <point x="1133" y="352" type="line"/>
      <point x="1184" y="274"/>
      <point x="1278" y="233"/>
      <point x="1376" y="233" type="curve" smooth="yes"/>
      <point x="1622" y="233"/>
      <point x="1755" y="500"/>
    </contour>
    <contour>
      <point x="760" y="641" type="curve" smooth="yes"/>
      <point x="760" y="778"/>
      <point x="831" y="895"/>
      <point x="995" y="895" type="curve" smooth="yes"/>
      <point x="1020" y="895"/>
      <point x="1036" y="893"/>
      <point x="1063" y="889" type="curve"/>
      <point x="1053" y="733" type="line" smooth="yes"/>
      <point x="1040" y="532"/>
      <point x="1001" y="451"/>
      <point x="893" y="451" type="curve" smooth="yes"/>
      <point x="813" y="451"/>
      <point x="760" y="508"/>
    </contour>
  </outline>
</glyph>
<glyph name="D" format="2">
  <advance width="1503"/>
  <unicode hex="0044"/>
  <anchor x="735" y="0" name="bottom"/>
  <anchor x="752" y="731" name="center"/>
  <anchor x="752" y="1462" name="top"/>
  <anchor x="1462" y="1462" name="topright"/>
  <outline>
    <contour>
      <point x="1399" y="762" type="curve" smooth="yes"/>
      <point x="1399" y="1214"/>
      <point x="1135" y="1462"/>
      <point x="664" y="1462" type="curve" smooth="yes"/>
      <point x="158" y="1462" type="line"/>
      <point x="158" y="0" type="line"/>
      <point x="631" y="0" type="line" smooth="yes"/>
      <point x="1096" y="0"/>
      <point x="1399" y="252"/>
    </contour>
    <contour>
      <point x="989" y="748" type="curve" smooth="yes"/>
      <point x="989" y="461"/>
      <point x="881" y="324"/>
      <point x="641" y="324" type="curve" smooth="yes"/>
      <point x="553" y="324" type="line"/>
      <point x="553" y="1143" type="line"/>
      <point x="668" y="1143" type="line" smooth="yes"/>
      <point x="883" y="1143"/>
      <point x="989" y="1014"/>
    </contour>
  </outline>
</glyph>
<glyph name="G" format="2">
  <advance width="1516"/>
  <unicode hex="0047"/>
  <anchor x="778" y="0" name="bottom"/>
  <anchor x="821" y="1462" name="top"/>
  <anchor x="1475" y="1462" name="topright"/>
  <outline>
    <contour>
      <point x="745" y="856" type="line"/>
      <point x="745" y="551" type="line"/>
      <point x="1006" y="551" type="line"/>
      <point x="1006" y="322" type="line"/>
      <point x="971" y="313"/>
      <point x="891" y="305"/>
      <point x="844" y="305" type="curve" smooth="yes"/>
      <point x="631" y="305"/>
      <point x="512" y="453"/>
      <point x="512" y="725" type="curve" smooth="yes"/>
      <point x="512" y="963"/>
      <point x="612" y="1159"/>
      <point x="874" y="1159" type="curve" smooth="yes"/>
      <point x="1004" y="1159"/>
      <point x="1116" y="1133"/>
      <point x="1221" y="1081" type="curve"/>
      <point x="1346" y="1391" type="line"/>
      <point x="1225" y="1444"/>
      <point x="1055" y="1483"/>
      <point x="872" y="1483" type="curve" smooth="yes"/>
      <point x="373" y="1483"/>
      <point x="104" y="1194"/>
      <point x="104" y="735" type="curve" smooth="yes"/>
      <point x="104" y="223"/>
      <point x="389" y="-20"/>
      <point x="811" y="-20" type="curve" smooth="yes"/>
      <point x="1024" y="-20"/>
      <point x="1225" y="16"/>
      <point x="1376" y="68" type="curve"/>
      <point x="1376" y="856" type="line"/>
    </contour>
  </outline>
</glyph>
<glyph name="L" format="2">
  <advance width="1192"/>
  <unicode hex="004C"/>
  <anchor x="633" y="0" name="bottom"/>
  <anchor x="596" y="731" name="center"/>
  <anchor x="348" y="1462" name="top"/>
  <anchor x="745" y="1462" name="topright"/>
  <outline>
    <contour>
      <point x="158" y="0" type="line"/>
      <point x="1116" y="0" type="line"/>
      <point x="1116" y="319" type="line"/>
      <point x="553" y="319" type="line"/>
      <point x="553" y="1462" type="line"/>
      <point x="158" y="1462" type="line"/>
    </contour>
  </outline>
</glyph>
<glyph name="M" format="2">
  <advance width="1980"/>
  <unicode hex="004D"/>
  <anchor x="985" y="0" name="bottom"/>
  <anchor x="997" y="1462" name="top"/>
  <anchor x="1939" y="1462" name="topright"/>
  <outline>
    <contour>
      <point x="795" y="0" type="line"/>
      <point x="1171" y="0" type="line"/>
      <point x="1466" y="1051" type="line"/>
      <point x="1475" y="1051" type="line"/>
      <point x="1468" y="969"/>
      <point x="1460" y="778"/>
      <point x="1460" y="641" type="curve" smooth="yes"/>
      <point x="1460" y="0" type="line"/>
      <point x="1823" y="0" type="line"/>
      <point x="1823" y="1462" type="line"/>
      <point x="1296" y="1462" type="line"/>
      <point x="997" y="424" type="line"/>
      <point x="989" y="424" type="line"/>
      <point x="684" y="1462" type="line"/>
      <point x="158" y="1462" type="line"/>
      <point x="158" y="0" type="line"/>
      <point x="508" y="0" type="line"/>
      <point x="508" y="635" type="line" smooth="yes"/>
      <point x="508" y="784"/>
      <point x="494" y="971"/>
      <point x="487" y="1053" type="curve"/>
      <point x="496" y="1053" type="line"/>
    </contour>
  </outline>
</glyph>
<glyph name="R" format="2">
  <advance width="1386"/>
  <unicode hex="0052"/>
  <anchor x="725" y="0" name="bottom"/>
  <anchor x="694" y="1462" name="top"/>
  <anchor x="1346" y="1462" name="topright"/>
  <outline>
    <contour>
      <point x="637" y="1462" type="curve" smooth="yes"/>
      <point x="158" y="1462" type="line"/>
      <point x="158" y="0" type="line"/>
      <point x="553" y="0" type="line"/>
      <point x="553" y="532" type="line"/>
      <point x="653" y="532" type="line"/>
      <point x="963" y="0" type="line"/>
      <point x="1411" y="0" type="line"/>
      <point x="985" y="637" type="line"/>
      <point x="1139" y="723"/>
      <point x="1233" y="852"/>
      <point x="1233" y="1030" type="curve" smooth="yes"/>
      <point x="1233" y="1315"/>
      <point x="1034" y="1462"/>
    </contour>
    <contour>
      <point x="631" y="1163" type="line" smooth="yes"/>
      <point x="774" y="1163"/>
      <point x="834" y="1106"/>
      <point x="834" y="1012" type="curve" smooth="yes"/>
      <point x="834" y="874"/>
      <point x="748" y="829"/>
      <point x="627" y="829" type="curve" smooth="yes"/>
      <point x="553" y="829" type="line"/>
      <point x="553" y="1163" type="line"/>
    </contour>
  </outline>
</glyph>
<glyph name="X" format="2">
  <advance width="1481"/>
  <unicode hex="0058"/>
  <anchor x="741" y="0" name="bottom"/>
  <anchor x="729" y="1462" name="top"/>
  <anchor x="1440" y="1462" name="topright"/>
  <outline>
    <contour>
      <point x="1475" y="0" type="line"/>
      <point x="977" y="717" type="line"/>
      <point x="1440" y="1462" type="line"/>
      <point x="989" y="1462" type="line"/>
      <point x="735" y="1010" type="line"/>
      <point x="471" y="1462" type="line"/>
      <point x="33" y="1462" type="line"/>
      <point x="489" y="748" type="line"/>
      <point x="4" y="0" type="line"/>
      <point x="451" y="0" type="line"/>
      <point x="733" y="457" type="line"/>
      <point x="1018" y="0" type="line"/>
    </contour>
  </outline>
</glyph>
<glyph name="i" format="2">
  <advance width="666"/>
  <unicode hex="0069"/>
  <anchor x="340" y="0" name="bottom"/>
  <anchor x="334" y="1589" name="top"/>
  <anchor x="625" y="1589" name="topright"/>
  <outline>
    <contour>
      <point x="528" y="1133" type="line"/>
      <point x="137" y="1133" type="line"/>
      <point x="137" y="0" type="line"/>
      <point x="528" y="0" type="line"/>
    </contour>
    <contour>
      <point x="334" y="1589" type="curve" smooth="yes"/>
      <point x="219" y="1589"/>
      <point x="127" y="1554"/>
      <point x="127" y="1415" type="curve"/>
      <point x="127" y="1280"/>
      <point x="219" y="1243"/>
      <point x="334" y="1243" type="curve" smooth="yes"/>
      <point x="446" y="1243"/>
      <point x="543" y="1280"/>
      <point x="543" y="1415" type="curve" smooth="yes"/>
      <point x="543" y="1554"/>
      <point x="446" y="1589"/>
    </contour>
  </outline>
</glyph>
<glyph name="l" format="2">
  <advance width="662"/>
  <unicode hex="006C"/>
  <anchor x="332" y="0" name="bottom"/>
  <anchor x="332" y="567" name="center"/>
  <anchor x="332" y="1556" name="top"/>
  <anchor x="569" y="1556" name="topright"/>
  <outline>
    <contour>
      <point x="526" y="0" type="line"/>
      <point x="526" y="1556" type="line"/>
      <point x="135" y="1556" type="line"/>
      <point x="135" y="0" type="line"/>
    </contour>
  </outline>
</glyph>
<glyph name="u" format="2">
  <advance width="1372"/>
  <unicode hex="0075"/>
  <anchor x="674" y="0" name="bottom"/>
  <anchor x="686" y="1133" name="top"/>
  <anchor x="1303" y="1133" name="topright"/>
  <outline>
    <contour>
      <point x="1237" y="1133" type="line"/>
      <point x="846" y="1133" type="line"/>
      <point x="846" y="637" type="line" smooth="yes"/>
      <point x="846" y="412"/>
      <point x="807" y="289"/>
      <point x="659" y="289" type="curve" smooth="yes"/>
      <point x="563" y="289"/>
      <point x="524" y="367"/>
      <point x="524" y="514" type="curve" smooth="yes"/>
      <point x="524" y="1133" type="line"/>
      <point x="133" y="1133" type="line"/>
      <point x="133" y="395" type="line" smooth="yes"/>
      <point x="133" y="104"/>
      <point x="305" y="-20"/>
      <point x="528" y="-20" type="curve" smooth="yes"/>
      <point x="668" y="-20"/>
      <point x="799" y="27"/>
      <point x="870" y="141" type="curve"/>
      <point x="893" y="141" type="line"/>
      <point x="942" y="0" type="line"/>
      <point x="1237" y="0" type="line"/>
    </contour>
  </outline>
</glyph>
<glyph name="braceleft" format="2">
  <advance width="887"/>
  <unicode hex="007B"/>
  <outline>
    <contour>
      <point x="821" y="-344" type="curve"/>
      <point x="821" y="-66" type="line"/>
      <point x="741" y="-63"/>
      <point x="631" y="-59"/>
      <point x="631" y="41" type="curve" smooth="yes"/>
      <point x="631" y="317" type="line" smooth="yes"/>
      <point x="631" y="473"/>
      <point x="547" y="539"/>
      <point x="391" y="563" type="curve"/>
      <point x="391" y="575" type="line"/>
      <point x="543" y="596"/>
      <point x="631" y="662"/>
      <point x="631" y="827" type="curve" smooth="yes"/>
      <point x="631" y="1098" type="line" smooth="yes"/>
      <point x="631" y="1200"/>
      <point x="739" y="1202"/>
      <point x="821" y="1204" type="curve"/>
      <point x="821" y="1483" type="line"/>
      <point x="395" y="1483"/>
      <point x="307" y="1376"/>
      <point x="307" y="1143" type="curve" smooth="yes"/>
      <point x="307" y="889" type="line" smooth="yes"/>
      <point x="307" y="764"/>
      <point x="188" y="719"/>
      <point x="61" y="719" type="curve"/>
      <point x="61" y="418" type="line"/>
      <point x="184" y="418"/>
      <point x="307" y="371"/>
      <point x="307" y="248" type="curve" smooth="yes"/>
      <point x="307" y="0" type="line" smooth="yes"/>
      <point x="307" y="-240"/>
      <point x="401" y="-344"/>
    </contour>
  </outline>
</glyph>
<glyph name="brokenbar" format="2">
  <advance width="1042"/>
  <unicode hex="00A6"/>
  <outline>
    <contour>
      <point x="387" y="1556" type="line"/>
      <point x="387" y="717" type="line"/>
      <point x="655" y="717" type="line"/>
      <point x="655" y="1556" type="line"/>
    </contour>
    <contour>
      <point x="387" y="393" type="line"/>
      <point x="387" y="-446" type="line"/>
      <point x="655" y="-446" type="line"/>
      <point x="655" y="393" type="line"/>
    </contour>
  </outline>
</glyph>
<glyph name="threesuperior" format="2">
  <advance width="817"/>
  <unicode hex="00B3"/>
  <outline>
    <contour>
      <point x="406" y="1747" type="curve" smooth="yes"/>
      <point x="260" y="1747"/>
      <point x="145" y="1696"/>
      <point x="63" y="1632" type="curve"/>
      <point x="180" y="1462" type="line"/>
      <point x="250" y="1516"/>
      <point x="305" y="1536"/>
      <point x="371" y="1536" type="curve" smooth="yes"/>
      <point x="438" y="1536"/>
      <point x="463" y="1501"/>
      <point x="463" y="1468" type="curve" smooth="yes"/>
      <point x="463" y="1425"/>
      <point x="436" y="1391"/>
      <point x="324" y="1391" type="curve" smooth="yes"/>
      <point x="244" y="1391" type="line"/>
      <point x="244" y="1196" type="line"/>
      <point x="348" y="1196" type="line" smooth="yes"/>
      <point x="469" y="1196"/>
      <point x="483" y="1161"/>
      <point x="483" y="1124" type="curve" smooth="yes"/>
      <point x="483" y="1075"/>
      <point x="436" y="1057"/>
      <point x="367" y="1057" type="curve" smooth="yes"/>
      <point x="260" y="1057"/>
      <point x="156" y="1079"/>
      <point x="70" y="1139" type="curve"/>
      <point x="70" y="905" type="line"/>
      <point x="152" y="858"/>
      <point x="260" y="836"/>
      <point x="379" y="836" type="curve" smooth="yes"/>
      <point x="612" y="836"/>
      <point x="754" y="926"/>
      <point x="754" y="1090" type="curve" smooth="yes"/>
      <point x="754" y="1204"/>
      <point x="692" y="1272"/>
      <point x="563" y="1305" type="curve"/>
      <point x="563" y="1313" type="line"/>
      <point x="680" y="1356"/>
      <point x="725" y="1430"/>
      <point x="725" y="1532" type="curve" smooth="yes"/>
      <point x="725" y="1661"/>
      <point x="608" y="1747"/>
    </contour>
  </outline>
</glyph>
<glyph name="cedilla" format="2">
  <advance width="590"/>
  <unicode hex="00B8"/>
  <outline>
    <contour>
      <point x="541" y="-252" type="curve" smooth="yes"/>
      <point x="541" y="-121"/>
      <point x="434" y="-80"/>
      <point x="352" y="-61" type="curve"/>
      <point x="371" y="0" type="line"/>
      <point x="176" y="0" type="line"/>
      <point x="115" y="-139" type="line"/>
      <point x="219" y="-158"/>
      <point x="260" y="-182"/>
      <point x="260" y="-229" type="curve" smooth="yes"/>
      <point x="260" y="-264"/>
      <point x="229" y="-287"/>
      <point x="178" y="-287" type="curve" smooth="yes"/>
      <point x="133" y="-287"/>
      <point x="90" y="-279"/>
      <point x="45" y="-264" type="curve"/>
      <point x="45" y="-457" type="line"/>
      <point x="94" y="-475"/>
      <point x="172" y="-492"/>
      <point x="266" y="-492" type="curve" smooth="yes"/>
      <point x="432" y="-492"/>
      <point x="541" y="-397"/>
    </contour>
  </outline>
</glyph>
<glyph name="Eth" format="2">
  <advance width="1503"/>
  <unicode hex="00D0"/>
  <anchor x="752" y="0" name="bottom"/>
  <anchor x="752" y="1462" name="top"/>
  <outline>
    <contour>
      <point x="664" y="1462" type="curve" smooth="yes"/>
      <point x="158" y="1462" type="line"/>
      <point x="158" y="883" type="line"/>
      <point x="31" y="883" type="line"/>
      <point x="31" y="563" type="line"/>
      <point x="158" y="563" type="line"/>
      <point x="158" y="0" type="line"/>
      <point x="631" y="0" type="line" smooth="yes"/>
      <point x="1096" y="0"/>
      <point x="1399" y="252"/>
      <point x="1399" y="762" type="curve" smooth="yes"/>
      <point x="1399" y="1214"/>
      <point x="1135" y="1462"/>
    </contour>
    <contour>
      <point x="668" y="1143" type="line" smooth="yes"/>
      <point x="883" y="1143"/>
      <point x="989" y="1014"/>
      <point x="989" y="748" type="curve" smooth="yes"/>
      <point x="989" y="461"/>
      <point x="881" y="324"/>
      <point x="641" y="324" type="curve" smooth="yes"/>
      <point x="553" y="324" type="line"/>
      <point x="553" y="563" type="line"/>
      <point x="764" y="563" type="line"/>
      <point x="764" y="883" type="line"/>
      <point x="553" y="883" type="line"/>
      <point x="553" y="1143" type="line"/>
    </contour>
  </outline>
</glyph>
<glyph name="thorn" format="2">
  <advance width="1317"/>
  <unicode hex="00FE"/>
  <anchor x="659" y="-492" name="bottom"/>
  <anchor x="659" y="1556" name="top"/>
  <outline>
    <contour>
      <point x="1229" y="569" type="curve" smooth="yes"/>
      <point x="1229" y="952"/>
      <point x="1063" y="1153"/>
      <point x="827" y="1153" type="curve" smooth="yes"/>
      <point x="678" y="1153"/>
      <point x="578" y="1079"/>
      <point x="526" y="987" type="curve"/>
      <point x="508" y="987" type="line"/>
      <point x="516" y="1028"/>
      <point x="526" y="1102"/>
      <point x="526" y="1212" type="curve" smooth="yes"/>
      <point x="526" y="1556" type="line"/>
      <point x="135" y="1556" type="line"/>
      <point x="135" y="-492" type="line"/>
      <point x="526" y="-492" type="line"/>
      <point x="526" y="-43" type="line" smooth="yes"/>
      <point x="526" y="0"/>
      <point x="520" y="68"/>
      <point x="512" y="109" type="curve"/>
      <point x="526" y="109" type="line"/>
      <point x="584" y="43"/>
      <point x="672" y="-20"/>
      <point x="813" y="-20" type="curve" smooth="yes"/>
      <point x="1053" y="-20"/>
      <point x="1229" y="182"/>
    </contour>
    <contour>
      <point x="831" y="573" type="curve" smooth="yes"/>
      <point x="831" y="391"/>
      <point x="795" y="295"/>
      <point x="688" y="295" type="curve" smooth="yes"/>
      <point x="567" y="295"/>
      <point x="526" y="391"/>
      <point x="526" y="571" type="curve" smooth="yes"/>
      <point x="526" y="600" type="line" smooth="yes"/>
      <point x="530" y="764"/>
      <point x="569" y="846"/>
      <point x="682" y="846" type="curve" smooth="yes"/>
      <point x="793" y="846"/>
      <point x="831" y="752"/>
    </contour>
  </outline>
</glyph>
<glyph name="Eng" format="2">
  <advance width="1708"/>
  <unicode hex="014A"/>
  <anchor x="854" y="-489" name="bottom"/>
  <anchor x="854" y="1462" name="top"/>
  <outline>
    <contour>
      <point x="1028" y="-489" type="curve" smooth="yes"/>
      <point x="1335" y="-489"/>
      <point x="1550" y="-322"/>
      <point x="1550" y="-8" type="curve" smooth="yes"/>
      <point x="1550" y="1462" type="line"/>
      <point x="1198" y="1462" type="line"/>
      <point x="1198" y="1075" type="line" smooth="yes"/>
      <point x="1198" y="938"/>
      <point x="1208" y="731"/>
      <point x="1214" y="653" type="curve"/>
      <point x="1206" y="653" type="line"/>
      <point x="633" y="1462" type="line"/>
      <point x="158" y="1462" type="line"/>
      <point x="158" y="0" type="line"/>
      <point x="508" y="0" type="line"/>
      <point x="508" y="614" type="line" smooth="yes"/>
      <point x="508" y="764"/>
      <point x="498" y="950"/>
      <point x="489" y="1030" type="curve"/>
      <point x="498" y="1030" type="line"/>
      <point x="1219" y="0" type="line"/>
      <point x="1208" y="-121"/>
      <point x="1135" y="-182"/>
      <point x="977" y="-182" type="curve" smooth="yes"/>
      <point x="909" y="-182"/>
      <point x="856" y="-170"/>
      <point x="805" y="-162" type="curve"/>
      <point x="805" y="-469" type="line"/>
      <point x="856" y="-479"/>
      <point x="930" y="-489"/>
    </contour>
  </outline>
</glyph>
<glyph name="uni0188" format="2">
  <advance width="1090"/>
  <unicode hex="0188"/>
  <anchor x="645" y="0" name="bottom"/>
  <anchor x="600" y="1565" name="top"/>
  <outline>
    <contour>
      <point x="614" y="-20" type="curve"/>
      <point x="788" y="-20"/>
      <point x="879" y="6"/>
      <point x="983" y="78" type="curve"/>
      <point x="983" y="414" type="line"/>
      <point x="885" y="340"/>
      <point x="793" y="299"/>
      <point x="653" y="299" type="curve"/>
      <point x="553" y="299"/>
      <point x="485" y="362"/>
      <point x="485" y="563" type="curve"/>
      <point x="485" y="750"/>
      <point x="535" y="838"/>
      <point x="647" y="838" type="curve"/>
      <point x="733" y="838"/>
      <point x="813" y="805"/>
      <point x="909" y="762" type="curve"/>
      <point x="1028" y="1051" type="line"/>
      <point x="1028" y="1145" type="line" smooth="yes"/>
      <point x="1028" y="1221"/>
      <point x="1063" y="1249"/>
      <point x="1122" y="1249" type="curve"/>
      <point x="1169" y="1249"/>
      <point x="1212" y="1237"/>
      <point x="1237" y="1229" type="curve"/>
      <point x="1237" y="1530" type="line"/>
      <point x="1214" y="1542"/>
      <point x="1149" y="1565"/>
      <point x="1083" y="1565" type="curve"/>
      <point x="866" y="1565"/>
      <point x="713" y="1456"/>
      <point x="713" y="1155" type="curve"/>
      <point x="713" y="1149" type="line"/>
      <point x="692" y="1153"/>
      <point x="668" y="1153"/>
      <point x="645" y="1153" type="curve"/>
      <point x="324" y="1153"/>
      <point x="80" y="999"/>
      <point x="80" y="561" type="curve"/>
      <point x="80" y="137"/>
      <point x="276" y="-20"/>
    </contour>
  </outline>
</glyph>
<glyph name="uni0194" format="2">
  <advance width="1376"/>
  <unicode hex="0194"/>
  <anchor x="688" y="-492" name="bottom"/>
  <anchor x="688" y="1462" name="top"/>
  <outline>
    <contour>
      <point x="684" y="-492" type="curve" smooth="yes"/>
      <point x="911" y="-492"/>
      <point x="1040" y="-346"/>
      <point x="1040" y="-143" type="curve" smooth="yes"/>
      <point x="1040" y="27"/>
      <point x="954" y="172"/>
      <point x="874" y="307" type="curve"/>
      <point x="1405" y="1462" type="line"/>
      <point x="983" y="1462" type="line"/>
      <point x="764" y="903" type="line" smooth="yes"/>
      <point x="729" y="817"/>
      <point x="709" y="758"/>
      <point x="686" y="666" type="curve"/>
      <point x="668" y="756"/>
      <point x="649" y="815"/>
      <point x="616" y="907" type="curve" smooth="yes"/>
      <point x="422" y="1462" type="line"/>
      <point x="0" y="1462" type="line"/>
      <point x="489" y="313" type="line"/>
      <point x="412" y="162"/>
      <point x="334" y="14"/>
      <point x="334" y="-141" type="curve" smooth="yes"/>
      <point x="334" y="-356"/>
      <point x="457" y="-492"/>
    </contour>
    <contour>
      <point x="686" y="-217" type="curve" smooth="yes"/>
      <point x="649" y="-217"/>
      <point x="629" y="-186"/>
      <point x="629" y="-125" type="curve" smooth="yes"/>
      <point x="629" y="-61"/>
      <point x="649" y="8"/>
      <point x="686" y="72" type="curve"/>
      <point x="725" y="2"/>
      <point x="745" y="-68"/>
      <point x="745" y="-123" type="curve" smooth="yes"/>
      <point x="745" y="-188"/>
      <point x="723" y="-217"/>
    </contour>
  </outline>
</glyph>
<glyph name="uni0198" format="2">
  <advance width="1436"/>
  <unicode hex="0198"/>
  <anchor x="719" y="0" name="bottom"/>
  <anchor x="719" y="1462" name="top"/>
  <outline>
    <contour>
      <point x="1198" y="1489" type="curve"/>
      <point x="997" y="1489"/>
      <point x="870" y="1333"/>
      <point x="756" y="1143" type="curve" smooth="yes"/>
      <point x="694" y="1040" type="line" smooth="yes"/>
      <point x="655" y="975"/>
      <point x="610" y="893"/>
      <point x="575" y="827" type="curve"/>
      <point x="575" y="1462" type="line"/>
      <point x="174" y="1462" type="line"/>
      <point x="174" y="0" type="line"/>
      <point x="575" y="0" type="line"/>
      <point x="575" y="487" type="line"/>
      <point x="680" y="547" type="line"/>
      <point x="981" y="0" type="line"/>
      <point x="1436" y="0" type="line"/>
      <point x="965" y="803" type="line"/>
      <point x="1137" y="1081" type="line" smooth="yes"/>
      <point x="1163" y="1122"/>
      <point x="1219" y="1163"/>
      <point x="1278" y="1163" type="curve"/>
      <point x="1323" y="1163"/>
      <point x="1362" y="1151"/>
      <point x="1386" y="1141" type="curve"/>
      <point x="1386" y="1450" type="line"/>
      <point x="1350" y="1468"/>
      <point x="1286" y="1489"/>
    </contour>
  </outline>
</glyph>
<glyph name="uni019B" format="2">
  <advance width="1362"/>
  <unicode hex="019B"/>
  <anchor x="682" y="0" name="bottom"/>
  <anchor x="682" y="1569" name="top"/>
  <outline>
    <contour>
      <point x="0" y="0" type="line"/>
      <point x="406" y="0" type="line"/>
      <point x="586" y="459" type="line" smooth="yes"/>
      <point x="604" y="504"/>
      <point x="627" y="573"/>
      <point x="645" y="639" type="curve"/>
      <point x="653" y="639" type="line"/>
      <point x="662" y="592"/>
      <point x="678" y="530"/>
      <point x="707" y="449" type="curve" smooth="yes"/>
      <point x="770" y="270" type="line" smooth="yes"/>
      <point x="836" y="84"/>
      <point x="940" y="-14"/>
      <point x="1151" y="-14" type="curve" smooth="yes"/>
      <point x="1249" y="-14"/>
      <point x="1309" y="4"/>
      <point x="1343" y="18" type="curve"/>
      <point x="1343" y="297" type="line"/>
      <point x="1319" y="291"/>
      <point x="1292" y="287"/>
      <point x="1262" y="287" type="curve" smooth="yes"/>
      <point x="1188" y="287"/>
      <point x="1145" y="307"/>
      <point x="1096" y="444" type="curve" smooth="yes"/>
      <point x="834" y="1178" type="line"/>
      <point x="983" y="1225" type="line"/>
      <point x="918" y="1440" type="line"/>
      <point x="737" y="1378" type="line"/>
      <point x="653" y="1518"/>
      <point x="526" y="1569"/>
      <point x="326" y="1569" type="curve" smooth="yes"/>
      <point x="276" y="1569"/>
      <point x="174" y="1561"/>
      <point x="137" y="1552" type="curve"/>
      <point x="137" y="1276" type="line"/>
      <point x="180" y="1286"/>
      <point x="217" y="1292"/>
      <point x="260" y="1292" type="curve" smooth="yes"/>
      <point x="309" y="1292"/>
      <point x="356" y="1280"/>
      <point x="379" y="1255" type="curve"/>
      <point x="219" y="1212" type="line"/>
      <point x="285" y="1008" type="line"/>
      <point x="483" y="1069" type="line"/>
      <point x="487" y="1057" type="line"/>
    </contour>
  </outline>
</glyph>
<glyph name="uni01A4" format="2">
  <advance width="1610"/>
  <unicode hex="01A4"/>
  <anchor x="809" y="0" name="bottom"/>
  <anchor x="809" y="1462" name="top"/>
  <outline>
    <contour>
      <point x="467" y="0" type="line"/>
      <point x="868" y="0" type="line"/>
      <point x="868" y="483" type="line"/>
      <point x="961" y="483" type="line" smooth="yes"/>
      <point x="1432" y="483"/>
      <point x="1534" y="756"/>
      <point x="1534" y="989" type="curve"/>
      <point x="1534" y="1276"/>
      <point x="1372" y="1462"/>
      <point x="983" y="1462" type="curve"/>
      <point x="426" y="1462" type="line"/>
      <point x="106" y="1462"/>
      <point x="6" y="1280"/>
      <point x="6" y="1073" type="curve"/>
      <point x="6" y="1014"/>
      <point x="23" y="971"/>
      <point x="33" y="952" type="curve"/>
      <point x="340" y="952" type="line"/>
      <point x="332" y="973"/>
      <point x="319" y="997"/>
      <point x="319" y="1044" type="curve"/>
      <point x="319" y="1092"/>
      <point x="350" y="1135"/>
      <point x="414" y="1135" type="curve"/>
      <point x="467" y="1135" type="line"/>
    </contour>
    <contour>
      <point x="868" y="811" type="line"/>
      <point x="868" y="1135" type="line"/>
      <point x="965" y="1135" type="line"/>
      <point x="1077" y="1135"/>
      <point x="1130" y="1083"/>
      <point x="1130" y="977" type="curve"/>
      <point x="1130" y="870"/>
      <point x="1047" y="811"/>
      <point x="928" y="811" type="curve"/>
    </contour>
  </outline>
</glyph>
<glyph name="uni01AC" format="2">
  <advance width="1352"/>
  <unicode hex="01AC"/>
  <anchor x="676" y="0" name="bottom"/>
  <anchor x="676" y="1462" name="top"/>
  <outline>
    <contour>
      <point x="532" y="0" type="line"/>
      <point x="936" y="0" type="line"/>
      <point x="936" y="1130" type="line"/>
      <point x="1298" y="1130" type="line"/>
      <point x="1298" y="1462" type="line"/>
      <point x="426" y="1462" type="line" smooth="yes"/>
      <point x="106" y="1462"/>
      <point x="6" y="1280"/>
      <point x="6" y="1073" type="curve"/>
      <point x="6" y="1014"/>
      <point x="23" y="971"/>
      <point x="33" y="952" type="curve"/>
      <point x="340" y="952" type="line"/>
      <point x="332" y="973"/>
      <point x="319" y="997"/>
      <point x="319" y="1038" type="curve"/>
      <point x="319" y="1085"/>
      <point x="350" y="1130"/>
      <point x="414" y="1130" type="curve"/>
      <point x="532" y="1130" type="line"/>
    </contour>
  </outline>
</glyph>
<glyph name="uni01B1" format="2">
  <advance width="1620"/>
  <unicode hex="01B1"/>
  <anchor x="811" y="0" name="bottom"/>
  <anchor x="811" y="1462" name="top"/>
  <outline>
    <contour>
      <point x="809" y="313" type="curve"/>
      <point x="625" y="313"/>
      <point x="510" y="424"/>
      <point x="510" y="662" type="curve"/>
      <point x="510" y="854"/>
      <point x="545" y="1034"/>
      <point x="721" y="1092" type="curve"/>
      <point x="721" y="1462" type="line"/>
      <point x="43" y="1462" type="line"/>
      <point x="43" y="1128" type="line"/>
      <point x="406" y="1128" type="line"/>
      <point x="225" y="1051"/>
      <point x="96" y="836"/>
      <point x="96" y="571" type="curve"/>
      <point x="96" y="219"/>
      <point x="377" y="-20"/>
      <point x="809" y="-20" type="curve"/>
      <point x="1251" y="-20"/>
      <point x="1524" y="209"/>
      <point x="1524" y="567" type="curve"/>
      <point x="1524" y="815"/>
      <point x="1405" y="1044"/>
      <point x="1223" y="1128" type="curve"/>
      <point x="1577" y="1128" type="line"/>
      <point x="1577" y="1462" type="line"/>
      <point x="905" y="1462" type="line"/>
      <point x="905" y="1092" type="line"/>
      <point x="1077" y="1034"/>
      <point x="1110" y="860"/>
      <point x="1110" y="666" type="curve"/>
      <point x="1110" y="422"/>
      <point x="995" y="313"/>
    </contour>
  </outline>
</glyph>
<glyph name="Aringacute" format="2">
  <advance width="1483"/>
  <unicode hex="01FA"/>
  <anchor x="741" y="0" name="bottom"/>
  <anchor x="741" y="1962" name="top"/>
  <outline>
    <contour>
      <point x="0" y="0" type="line"/>
      <point x="434" y="0" type="line"/>
      <point x="508" y="274" type="line"/>
      <point x="977" y="274" type="line"/>
      <point x="1055" y="0" type="line"/>
      <point x="1487" y="0" type="line"/>
      <point x="999" y="1401" type="line"/>
      <point x="1008" y="1425"/>
      <point x="1012" y="1454"/>
      <point x="1012" y="1483" type="curve" smooth="yes"/>
      <point x="1012" y="1638"/>
      <point x="889" y="1735"/>
      <point x="739" y="1735" type="curve" smooth="yes"/>
      <point x="582" y="1735"/>
      <point x="475" y="1638"/>
      <point x="475" y="1481" type="curve" smooth="yes"/>
      <point x="475" y="1454"/>
      <point x="477" y="1427"/>
      <point x="483" y="1405" type="curve"/>
    </contour>
    <contour>
      <point x="596" y="602" type="line"/>
      <point x="657" y="811" type="line" smooth="yes"/>
      <point x="686" y="907"/>
      <point x="725" y="1047"/>
      <point x="743" y="1147" type="curve"/>
      <point x="762" y="1047"/>
      <point x="807" y="889"/>
      <point x="831" y="811" type="curve" smooth="yes"/>
      <point x="895" y="602" type="line"/>
    </contour>
    <contour>
      <point x="739" y="1397" type="curve" smooth="yes"/>
      <point x="684" y="1397"/>
      <point x="655" y="1432"/>
      <point x="655" y="1481" type="curve" smooth="yes"/>
      <point x="655" y="1532"/>
      <point x="692" y="1565"/>
      <point x="739" y="1565" type="curve" smooth="yes"/>
      <point x="786" y="1565"/>
      <point x="823" y="1532"/>
      <point x="823" y="1481" type="curve" smooth="yes"/>
      <point x="823" y="1432"/>
      <point x="786" y="1397"/>
    </contour>
    <contour>
      <point x="571" y="1790" type="line"/>
      <point x="831" y="1790" type="line"/>
      <point x="926" y="1819"/>
      <point x="1133" y="1903"/>
      <point x="1176" y="1942" type="curve"/>
      <point x="1176" y="1962" type="line"/>
      <point x="745" y="1962" type="line"/>
      <point x="702" y="1913"/>
      <point x="629" y="1853"/>
      <point x="571" y="1815" type="curve"/>
    </contour>
  </outline>
</glyph>
<glyph name="uni0251" format="2">
  <advance width="1331"/>
  <unicode hex="0251"/>
  <anchor x="666" y="0" name="bottom"/>
  <anchor x="666" y="1133" name="top"/>
  <outline>
    <contour>
      <point x="522" y="-20" type="curve" smooth="yes"/>
      <point x="694" y="-20"/>
      <point x="784" y="66"/>
      <point x="844" y="147" type="curve"/>
      <point x="856" y="147" type="line"/>
      <point x="918" y="20"/>
      <point x="1006" y="-20"/>
      <point x="1167" y="-20" type="curve" smooth="yes"/>
      <point x="1212" y="-20"/>
      <point x="1303" y="-6"/>
      <point x="1323" y="6" type="curve"/>
      <point x="1323" y="297" type="line"/>
      <point x="1313" y="293"/>
      <point x="1282" y="287"/>
      <point x="1264" y="287" type="curve" smooth="yes"/>
      <point x="1221" y="287"/>
      <point x="1182" y="311"/>
      <point x="1182" y="408" type="curve" smooth="yes"/>
      <point x="1182" y="1133" type="line"/>
      <point x="860" y="1133" type="line"/>
      <point x="809" y="1012" type="line"/>
      <point x="799" y="1012" type="line"/>
      <point x="739" y="1087"/>
      <point x="664" y="1153"/>
      <point x="512" y="1153" type="curve" smooth="yes"/>
      <point x="256" y="1153"/>
      <point x="86" y="952"/>
      <point x="86" y="565" type="curve" smooth="yes"/>
      <point x="86" y="178"/>
      <point x="250" y="-20"/>
    </contour>
    <contour>
      <point x="655" y="287" type="curve" smooth="yes"/>
      <point x="545" y="287"/>
      <point x="481" y="369"/>
      <point x="481" y="563" type="curve" smooth="yes"/>
      <point x="481" y="748"/>
      <point x="545" y="838"/>
      <point x="657" y="838" type="curve" smooth="yes"/>
      <point x="766" y="838"/>
      <point x="821" y="758"/>
      <point x="821" y="588" type="curve" smooth="yes"/>
      <point x="821" y="541" type="line" smooth="yes"/>
      <point x="821" y="373"/>
      <point x="758" y="287"/>
    </contour>
  </outline>
</glyph>
<glyph name="uni025F" format="2">
  <advance width="698"/>
  <unicode hex="025F"/>
  <anchor x="350" y="-492" name="bottom"/>
  <anchor x="350" y="1133" name="top"/>
  <anchor x="608" y="1133" name="topright"/>
  <outline>
    <contour>
      <point x="84" y="-492" type="curve"/>
      <point x="430" y="-492"/>
      <point x="547" y="-297"/>
      <point x="547" y="-80" type="curve"/>
      <point x="547" y="438" type="line"/>
      <point x="700" y="438" type="line"/>
      <point x="700" y="690" type="line"/>
      <point x="547" y="690" type="line"/>
      <point x="547" y="1133" type="line"/>
      <point x="150" y="1133" type="line"/>
      <point x="150" y="690" type="line"/>
      <point x="-6" y="690" type="line"/>
      <point x="-6" y="438" type="line"/>
      <point x="150" y="438" type="line"/>
      <point x="150" y="-8" type="line" smooth="yes"/>
      <point x="150" y="-152"/>
      <point x="78" y="-176"/>
      <point x="4" y="-176" type="curve"/>
      <point x="-59" y="-176"/>
      <point x="-96" y="-170"/>
      <point x="-145" y="-158" type="curve"/>
      <point x="-145" y="-467" type="line"/>
      <point x="-92" y="-481"/>
      <point x="8" y="-492"/>
    </contour>
  </outline>
</glyph>
<glyph name="uni0271" format="2">
  <advance width="2103"/>
  <unicode hex="0271"/>
  <anchor x="1053" y="-492" name="bottom"/>
  <anchor x="1053" y="1133" name="top"/>
  <anchor x="1978" y="1133" name="topright"/>
  <outline>
    <contour>
      <point x="1559" y="1153" type="curve"/>
      <point x="1440" y="1153"/>
      <point x="1303" y="1112"/>
      <point x="1235" y="1001" type="curve"/>
      <point x="1198" y="1001" type="line"/>
      <point x="1133" y="1106"/>
      <point x="1016" y="1153"/>
      <point x="854" y="1153" type="curve"/>
      <point x="727" y="1153"/>
      <point x="594" y="1108"/>
      <point x="522" y="991" type="curve"/>
      <point x="502" y="991" type="line"/>
      <point x="451" y="1133" type="line"/>
      <point x="150" y="1133" type="line"/>
      <point x="150" y="0" type="line"/>
      <point x="547" y="0" type="line"/>
      <point x="547" y="494" type="line" smooth="yes"/>
      <point x="547" y="707"/>
      <point x="580" y="840"/>
      <point x="725" y="840" type="curve"/>
      <point x="815" y="840"/>
      <point x="854" y="762"/>
      <point x="854" y="612" type="curve"/>
      <point x="854" y="0" type="line"/>
      <point x="1251" y="0" type="line"/>
      <point x="1251" y="526" type="line" smooth="yes"/>
      <point x="1251" y="721"/>
      <point x="1294" y="840"/>
      <point x="1427" y="840" type="curve"/>
      <point x="1518" y="840"/>
      <point x="1559" y="762"/>
      <point x="1559" y="627" type="curve"/>
      <point x="1559" y="-31" type="line" smooth="yes"/>
      <point x="1559" y="-158"/>
      <point x="1501" y="-176"/>
      <point x="1450" y="-176" type="curve"/>
      <point x="1407" y="-176"/>
      <point x="1378" y="-170"/>
      <point x="1335" y="-158" type="curve"/>
      <point x="1335" y="-465" type="line"/>
      <point x="1382" y="-479"/>
      <point x="1475" y="-492"/>
      <point x="1548" y="-492" type="curve"/>
      <point x="1849" y="-492"/>
      <point x="1956" y="-305"/>
      <point x="1956" y="-98" type="curve"/>
      <point x="1956" y="737" type="line" smooth="yes"/>
      <point x="1956" y="1028"/>
      <point x="1819" y="1153"/>
    </contour>
  </outline>
</glyph>
<glyph name="uni0272" format="2">
  <advance width="1407"/>
  <unicode hex="0272"/>
  <anchor x="705" y="-492" name="bottom"/>
  <anchor x="705" y="1133" name="top"/>
  <anchor x="1303" y="1133" name="topright"/>
  <outline>
    <contour>
      <point x="852" y="1153" type="curve"/>
      <point x="731" y="1153"/>
      <point x="594" y="1108"/>
      <point x="522" y="991" type="curve"/>
      <point x="502" y="991" type="line"/>
      <point x="451" y="1133" type="line"/>
      <point x="150" y="1133" type="line"/>
      <point x="150" y="-100" type="line" smooth="yes"/>
      <point x="150" y="-143"/>
      <point x="115" y="-178"/>
      <point x="63" y="-178" type="curve"/>
      <point x="20" y="-178"/>
      <point x="-4" y="-170"/>
      <point x="-43" y="-158" type="curve"/>
      <point x="-43" y="-455" type="line"/>
      <point x="4" y="-483"/>
      <point x="84" y="-492"/>
      <point x="158" y="-492" type="curve"/>
      <point x="459" y="-492"/>
      <point x="547" y="-305"/>
      <point x="547" y="-98" type="curve"/>
      <point x="547" y="494" type="line" smooth="yes"/>
      <point x="547" y="711"/>
      <point x="582" y="840"/>
      <point x="729" y="840" type="curve"/>
      <point x="823" y="840"/>
      <point x="862" y="764"/>
      <point x="862" y="631" type="curve"/>
      <point x="862" y="0" type="line"/>
      <point x="1262" y="0" type="line"/>
      <point x="1262" y="737" type="line" smooth="yes"/>
      <point x="1262" y="1034"/>
      <point x="1087" y="1153"/>
    </contour>
  </outline>
</glyph>
<glyph name="rfishhookreversed" format="2">
  <advance width="874"/>
  <unicode hex="027F"/>
  <anchor x="438" y="-492" name="bottom"/>
  <anchor x="438" y="1133" name="top"/>
  <outline>
    <contour>
      <point x="313" y="1159" type="curve"/>
      <point x="205" y="1159"/>
      <point x="137" y="1149"/>
      <point x="49" y="1126" type="curve"/>
      <point x="94" y="807" type="line"/>
      <point x="135" y="817"/>
      <point x="162" y="821"/>
      <point x="209" y="821" type="curve"/>
      <point x="311" y="821"/>
      <point x="330" y="752"/>
      <point x="330" y="702" type="curve"/>
      <point x="330" y="-492" type="line"/>
      <point x="727" y="-492" type="line"/>
      <point x="727" y="723" type="line" smooth="yes"/>
      <point x="727" y="1022"/>
      <point x="582" y="1159"/>
    </contour>
  </outline>
</glyph>
<glyph name="uni028A" format="2">
  <advance width="1401"/>
  <unicode hex="028A"/>
  <anchor x="700" y="0" name="bottom"/>
  <anchor x="700" y="1133" name="top"/>
  <outline>
    <contour>
      <point x="700" y="-23" type="curve"/>
      <point x="1077" y="-23"/>
      <point x="1303" y="174"/>
      <point x="1303" y="477" type="curve"/>
      <point x="1303" y="662"/>
      <point x="1219" y="791"/>
      <point x="1133" y="844" type="curve"/>
      <point x="1343" y="844" type="line"/>
      <point x="1343" y="1135" type="line"/>
      <point x="764" y="1135" type="line"/>
      <point x="764" y="842" type="line"/>
      <point x="885" y="784"/>
      <point x="942" y="678"/>
      <point x="942" y="532" type="curve"/>
      <point x="942" y="354"/>
      <point x="844" y="279"/>
      <point x="700" y="279" type="curve"/>
      <point x="559" y="279"/>
      <point x="461" y="356"/>
      <point x="461" y="532" type="curve"/>
      <point x="461" y="672"/>
      <point x="516" y="784"/>
      <point x="643" y="842" type="curve"/>
      <point x="643" y="1135" type="line"/>
      <point x="57" y="1135" type="line"/>
      <point x="57" y="844" type="line"/>
      <point x="281" y="844" type="line"/>
      <point x="205" y="795"/>
      <point x="100" y="678"/>
      <point x="100" y="463" type="curve"/>
      <point x="100" y="180"/>
      <point x="319" y="-23"/>
    </contour>
  </outline>
</glyph>
<glyph name="glottalturned" format="2">
  <advance width="1047"/>
  <unicode hex="0296"/>
  <anchor x="524" y="0" name="bottom"/>
  <anchor x="524" y="1552" name="top"/>
  <outline>
    <contour>
      <point x="453" y="-20" type="curve"/>
      <point x="788" y="-20"/>
      <point x="1004" y="195"/>
      <point x="1004" y="436" type="curve"/>
      <point x="1004" y="643"/>
      <point x="918" y="805"/>
      <point x="639" y="942" type="curve"/>
      <point x="639" y="1552" type="line"/>
      <point x="236" y="1552" type="line"/>
      <point x="236" y="776" type="line"/>
      <point x="559" y="664"/>
      <point x="600" y="508"/>
      <point x="600" y="438" type="curve"/>
      <point x="600" y="360"/>
      <point x="520" y="297"/>
      <point x="442" y="297" type="curve"/>
      <point x="319" y="297"/>
      <point x="190" y="371"/>
      <point x="139" y="397" type="curve"/>
      <point x="-2" y="115" type="line"/>
      <point x="133" y="33"/>
      <point x="270" y="-20"/>
    </contour>
  </outline>
</glyph>
<glyph name="dzlig" format="2">
  <advance width="2144"/>
  <unicode hex="02A3"/>
  <anchor x="1608" y="0" name="bottom"/>
  <anchor x="1608" y="1556" name="top"/>
  <outline>
    <contour>
      <point x="487" y="-20" type="curve" smooth="yes"/>
      <point x="643" y="-20"/>
      <point x="733" y="53"/>
      <point x="788" y="143" type="curve"/>
      <point x="803" y="143" type="line"/>
      <point x="887" y="0" type="line"/>
      <point x="2093" y="0" type="line"/>
      <point x="2093" y="299" type="line"/>
      <point x="1622" y="299" type="line"/>
      <point x="2071" y="891" type="line"/>
      <point x="2071" y="1133" type="line"/>
      <point x="1182" y="1133" type="line"/>
      <point x="1182" y="1556" type="line"/>
      <point x="788" y="1556" type="line"/>
      <point x="788" y="1253" type="line" smooth="yes"/>
      <point x="788" y="1149"/>
      <point x="801" y="1038"/>
      <point x="807" y="987" type="curve"/>
      <point x="799" y="987" type="line"/>
      <point x="739" y="1081"/>
      <point x="653" y="1153"/>
      <point x="502" y="1153" type="curve" smooth="yes"/>
      <point x="256" y="1153"/>
      <point x="86" y="952"/>
      <point x="86" y="565" type="curve" smooth="yes"/>
      <point x="86" y="182"/>
      <point x="254" y="-20"/>
    </contour>
    <contour>
      <point x="647" y="289" type="curve" smooth="yes"/>
      <point x="549" y="289"/>
      <point x="481" y="371"/>
      <point x="481" y="559" type="curve" smooth="yes"/>
      <point x="481" y="750"/>
      <point x="549" y="838"/>
      <point x="643" y="838" type="curve" smooth="yes"/>
      <point x="780" y="838"/>
      <point x="821" y="739"/>
      <point x="821" y="561" type="curve" smooth="yes"/>
      <point x="821" y="530" type="line" smooth="yes"/>
      <point x="817" y="367"/>
      <point x="772" y="289"/>
    </contour>
    <contour>
      <point x="1182" y="258" type="line"/>
      <point x="1182" y="834" type="line"/>
      <point x="1624" y="834" type="line"/>
    </contour>
  </outline>
</glyph>
<glyph name="uni02A4" format="2">
  <advance width="2302"/>
  <unicode hex="02A4"/>
  <anchor x="1642" y="-492" name="bottom"/>
  <anchor x="1683" y="1556" name="top"/>
  <outline>
    <contour>
      <point x="1552" y="-492" type="curve" smooth="yes"/>
      <point x="2023" y="-492"/>
      <point x="2224" y="-260"/>
      <point x="2224" y="72" type="curve" smooth="yes"/>
      <point x="2224" y="317"/>
      <point x="2066" y="498"/>
      <point x="1763" y="524" type="curve"/>
      <point x="2185" y="891" type="line"/>
      <point x="2185" y="1133" type="line"/>
      <point x="1182" y="1133" type="line"/>
      <point x="1182" y="1556" type="line"/>
      <point x="788" y="1556" type="line"/>
      <point x="788" y="1253" type="line" smooth="yes"/>
      <point x="788" y="1165"/>
      <point x="799" y="1051"/>
      <point x="807" y="987" type="curve" smooth="yes"/>
      <point x="799" y="987" type="line"/>
      <point x="739" y="1081"/>
      <point x="653" y="1153"/>
      <point x="502" y="1153" type="curve" smooth="yes"/>
      <point x="256" y="1153"/>
      <point x="86" y="952"/>
      <point x="86" y="565" type="curve" smooth="yes"/>
      <point x="86" y="182"/>
      <point x="254" y="-20"/>
      <point x="487" y="-20" type="curve" smooth="yes"/>
      <point x="643" y="-20"/>
      <point x="733" y="53"/>
      <point x="788" y="143" type="curve"/>
      <point x="803" y="143" type="line"/>
      <point x="887" y="0" type="line"/>
      <point x="1182" y="0" type="line"/>
      <point x="1182" y="834" type="line"/>
      <point x="1681" y="834" type="line"/>
      <point x="1319" y="516" type="line"/>
      <point x="1319" y="266" type="line"/>
      <point x="1454" y="266" type="line" smooth="yes"/>
      <point x="1774" y="266"/>
      <point x="1827" y="162"/>
      <point x="1827" y="41" type="curve" smooth="yes"/>
      <point x="1827" y="-82"/>
      <point x="1749" y="-180"/>
      <point x="1536" y="-180" type="curve" smooth="yes"/>
      <point x="1374" y="-180"/>
      <point x="1210" y="-137"/>
      <point x="1079" y="-78" type="curve"/>
      <point x="1079" y="-414" type="line"/>
      <point x="1212" y="-463"/>
      <point x="1341" y="-492"/>
    </contour>
    <contour>
      <point x="647" y="289" type="curve" smooth="yes"/>
      <point x="549" y="289"/>
      <point x="481" y="371"/>
      <point x="481" y="559" type="curve" smooth="yes"/>
      <point x="481" y="750"/>
      <point x="549" y="838"/>
      <point x="643" y="838" type="curve" smooth="yes"/>
      <point x="780" y="838"/>
      <point x="821" y="739"/>
      <point x="821" y="561" type="curve" smooth="yes"/>
      <point x="821" y="530" type="line" smooth="yes"/>
      <point x="817" y="367"/>
      <point x="772" y="289"/>
    </contour>
  </outline>
</glyph>
<glyph name="uni02AE" format="2">
  <advance width="1384"/>
  <unicode hex="02AE"/>
  <anchor x="692" y="-492" name="bottom"/>
  <anchor x="692" y="1133" name="top"/>
  <outline>
    <contour>
      <point x="152" y="1151" type="curve"/>
      <point x="59" y="1151"/>
      <point x="-12" y="1126"/>
      <point x="-41" y="1118" type="curve"/>
      <point x="-41" y="823" type="line"/>
      <point x="-18" y="831"/>
      <point x="12" y="846"/>
      <point x="66" y="846" type="curve"/>
      <point x="117" y="846"/>
      <point x="133" y="801"/>
      <point x="133" y="729" type="curve"/>
      <point x="133" y="393" type="line"/>
      <point x="133" y="102"/>
      <point x="305" y="-23"/>
      <point x="528" y="-23" type="curve"/>
      <point x="696" y="-23"/>
      <point x="776" y="29"/>
      <point x="850" y="141" type="curve"/>
      <point x="862" y="141" type="line"/>
      <point x="854" y="86"/>
      <point x="848" y="10"/>
      <point x="848" y="-37" type="curve"/>
      <point x="848" y="-492" type="line"/>
      <point x="1235" y="-492" type="line"/>
      <point x="1235" y="1130" type="line"/>
      <point x="848" y="1130" type="line"/>
      <point x="848" y="631" type="line" smooth="yes"/>
      <point x="848" y="406"/>
      <point x="807" y="283"/>
      <point x="659" y="283" type="curve"/>
      <point x="561" y="283"/>
      <point x="522" y="360"/>
      <point x="522" y="510" type="curve"/>
      <point x="522" y="743" type="line" smooth="yes"/>
      <point x="522" y="1024"/>
      <point x="444" y="1151"/>
    </contour>
  </outline>
</glyph>
<glyph name="ring" format="2">
  <advance width="700"/>
  <unicode hex="02DA"/>
  <outline>
    <contour>
      <point x="346" y="1237" type="curve" smooth="yes"/>
      <point x="498" y="1237"/>
      <point x="618" y="1333"/>
      <point x="618" y="1491" type="curve" smooth="yes"/>
      <point x="618" y="1647"/>
      <point x="496" y="1743"/>
      <point x="346" y="1743" type="curve" smooth="yes"/>
      <point x="188" y="1743"/>
      <point x="82" y="1647"/>
      <point x="82" y="1489" type="curve" smooth="yes"/>
      <point x="82" y="1333"/>
      <point x="188" y="1237"/>
    </contour>
    <contour>
      <point x="346" y="1405" type="curve" smooth="yes"/>
      <point x="291" y="1405"/>
      <point x="262" y="1440"/>
      <point x="262" y="1489" type="curve" smooth="yes"/>
      <point x="262" y="1540"/>
      <point x="299" y="1573"/>
      <point x="346" y="1573" type="curve" smooth="yes"/>
      <point x="393" y="1573"/>
      <point x="430" y="1540"/>
      <point x="430" y="1489" type="curve" smooth="yes"/>
      <point x="430" y="1440"/>
      <point x="393" y="1405"/>
    </contour>
  </outline>
</glyph>
<glyph name="uni02F2" format="2">
  <advance width="678"/>
  <unicode hex="02F2"/>
  <outline>
    <contour>
      <point x="82" y="-492" type="line"/>
      <point x="596" y="-272" type="line"/>
      <point x="596" y="-172" type="line"/>
      <point x="82" y="47" type="line"/>
      <point x="82" y="-94" type="line"/>
      <point x="416" y="-223" type="line"/>
      <point x="82" y="-350" type="line"/>
    </contour>
  </outline>
</glyph>
<glyph name="dblverticallineabovecomb" format="2">
  <unicode hex="030E"/>
  <anchor x="0" y="1133" name="_top"/>
  <anchor x="4" y="1589" name="top"/>
  <outline>
    <contour>
      <point x="-66" y="1589" type="line"/>
      <point x="-297" y="1589" type="line"/>
      <point x="-297" y="1221" type="line"/>
      <point x="-66" y="1221" type="line"/>
    </contour>
    <contour>
      <point x="297" y="1589" type="line"/>
      <point x="66" y="1589" type="line"/>
      <point x="66" y="1221" type="line"/>
      <point x="297" y="1221" type="line"/>
    </contour>
  </outline>
</glyph>
<glyph name="hookpalatalizedbelowcomb" format="2">
  <unicode hex="0321"/>
  <anchor x="-258" y="0" name="_bottom"/>
  <anchor x="-258" y="-494" name="bottom"/>
  <outline>
    <contour>
      <point x="-324" y="-494" type="curve"/>
      <point x="-117" y="-494"/>
      <point x="0" y="-385"/>
      <point x="0" y="-111" type="curve"/>
      <point x="0" y="119" type="line"/>
      <point x="-313" y="119" type="line"/>
      <point x="-313" y="-104" type="line" smooth="yes"/>
      <point x="-313" y="-205"/>
      <point x="-348" y="-231"/>
      <point x="-420" y="-231" type="curve"/>
      <point x="-449" y="-231"/>
      <point x="-481" y="-223"/>
      <point x="-514" y="-213" type="curve"/>
      <point x="-514" y="-467" type="line"/>
      <point x="-457" y="-487"/>
      <point x="-395" y="-494"/>
    </contour>
  </outline>
</glyph>
<glyph name="dotbelowcomb" format="2">
  <unicode hex="0323"/>
  <anchor x="-743" y="0" name="_bottom"/>
  <anchor x="-743" y="-479" name="bottom"/>
  <outline>
    <contour>
      <point x="-748" y="-479" type="curve" smooth="yes"/>
      <point x="-635" y="-479"/>
      <point x="-539" y="-442"/>
      <point x="-539" y="-307" type="curve" smooth="yes"/>
      <point x="-539" y="-168"/>
      <point x="-635" y="-133"/>
      <point x="-748" y="-133" type="curve" smooth="yes"/>
      <point x="-862" y="-133"/>
      <point x="-954" y="-168"/>
      <point x="-954" y="-307" type="curve" smooth="yes"/>
      <point x="-954" y="-442"/>
      <point x="-862" y="-479"/>
    </contour>
  </outline>
</glyph>
<glyph name="doublebrevebelowcomb" format="2">
  <unicode hex="035C"/>
  <anchor x="-565" y="0" name="_bottom"/>
  <anchor x="4" y="-506" name="bottom"/>
  <outline>
    <contour>
      <point x="4" y="-506" type="curve"/>
      <point x="393" y="-506"/>
      <point x="688" y="-379"/>
      <point x="823" y="-86" type="curve"/>
      <point x="580" y="-86" type="line"/>
      <point x="457" y="-201"/>
      <point x="272" y="-266"/>
      <point x="6" y="-266" type="curve"/>
      <point x="-270" y="-266"/>
      <point x="-467" y="-186"/>
      <point x="-578" y="-86" type="curve"/>
      <point x="-823" y="-86" type="line"/>
      <point x="-717" y="-356"/>
      <point x="-442" y="-506"/>
    </contour>
  </outline>
</glyph>
<glyph name="archaicsampi" format="2">
  <advance width="1260"/>
  <unicode hex="0373"/>
  <anchor x="631" y="0" name="bottom"/>
  <anchor x="631" y="1556" name="top"/>
  <outline>
    <contour>
      <point x="827" y="0" type="line"/>
      <point x="827" y="1255" type="line"/>
      <point x="1204" y="1255" type="line"/>
      <point x="1204" y="1556" type="line"/>
      <point x="55" y="1556" type="line"/>
      <point x="55" y="1255" type="line"/>
      <point x="432" y="1255" type="line"/>
      <point x="432" y="0" type="line"/>
    </contour>
    <contour>
      <point x="967" y="1556" type="line"/>
      <point x="967" y="866" type="line"/>
      <point x="1225" y="866" type="line"/>
      <point x="1225" y="1556" type="line"/>
    </contour>
    <contour>
      <point x="35" y="1556" type="line"/>
      <point x="35" y="866" type="line"/>
      <point x="293" y="866" type="line"/>
      <point x="293" y="1556" type="line"/>
    </contour>
  </outline>
</glyph>
<glyph name="dieresistonos" format="2">
  <advance width="1157"/>
  <unicode hex="0385"/>
  <anchor x="573" y="1133" name="_top"/>
  <outline>
    <contour>
      <point x="807" y="1716" type="line"/>
      <point x="500" y="1716" type="line"/>
      <point x="498" y="1632"/>
      <point x="475" y="1495"/>
      <point x="461" y="1417" type="curve"/>
      <point x="461" y="1389" type="line"/>
      <point x="633" y="1389" type="line"/>
      <point x="707" y="1501"/>
      <point x="768" y="1604"/>
      <point x="807" y="1696" type="curve"/>
    </contour>
    <contour>
      <point x="268" y="1571" type="curve" smooth="yes"/>
      <point x="172" y="1571"/>
      <point x="115" y="1522"/>
      <point x="115" y="1413" type="curve" smooth="yes"/>
      <point x="115" y="1307"/>
      <point x="172" y="1257"/>
      <point x="268" y="1257" type="curve" smooth="yes"/>
      <point x="360" y="1257"/>
      <point x="424" y="1307"/>
      <point x="424" y="1413" type="curve" smooth="yes"/>
      <point x="424" y="1522"/>
      <point x="360" y="1571"/>
    </contour>
    <contour>
      <point x="887" y="1571" type="curve" smooth="yes"/>
      <point x="788" y="1571"/>
      <point x="729" y="1522"/>
      <point x="729" y="1413" type="curve" smooth="yes"/>
      <point x="729" y="1307"/>
      <point x="788" y="1257"/>
      <point x="887" y="1257" type="curve" smooth="yes"/>
      <point x="981" y="1257"/>
      <point x="1042" y="1307"/>
      <point x="1042" y="1413" type="curve" smooth="yes"/>
      <point x="1042" y="1522"/>
      <point x="981" y="1571"/>
    </contour>
  </outline>
</glyph>
<glyph name="Theta" format="2">
  <advance width="1632"/>
  <unicode hex="0398"/>
  <anchor x="815" y="0" name="bottom"/>
  <anchor x="817" y="1462" name="top"/>
  <outline>
    <contour>
      <point x="1022" y="893" type="line"/>
      <point x="610" y="893" type="line"/>
      <point x="610" y="594" type="line"/>
      <point x="1022" y="594" type="line"/>
    </contour>
    <component base="O"/>
  </outline>
</glyph>
<glyph name="Pi" format="2">
  <advance width="1513"/>
  <unicode hex="03A0"/>
  <anchor x="758" y="0" name="bottom"/>
  <anchor x="758" y="1462" name="top"/>
  <outline>
    <contour>
      <point x="158" y="0" type="line"/>
      <point x="555" y="0" type="line"/>
      <point x="555" y="1139" type="line"/>
      <point x="958" y="1139" type="line"/>
      <point x="958" y="0" type="line"/>
      <point x="1356" y="0" type="line"/>
      <point x="1356" y="1462" type="line"/>
      <point x="158" y="1462" type="line"/>
    </contour>
  </outline>
</glyph>
<glyph name="Sigma" format="2">
  <advance width="1233"/>
  <unicode hex="03A3"/>
  <anchor x="616" y="0" name="bottom"/>
  <anchor x="616" y="1462" name="top"/>
  <outline>
    <contour>
      <point x="74" y="0" type="line"/>
      <point x="1157" y="0" type="line"/>
      <point x="1157" y="322" type="line"/>
      <point x="756" y="322" type="line" smooth="yes"/>
      <point x="657" y="322"/>
      <point x="592" y="317"/>
      <point x="504" y="309" type="curve"/>
      <point x="948" y="770" type="line"/>
      <point x="526" y="1155" type="line"/>
      <point x="608" y="1145"/>
      <point x="680" y="1145"/>
      <point x="762" y="1145" type="curve" smooth="yes"/>
      <point x="1098" y="1145" type="line"/>
      <point x="1098" y="1462" type="line"/>
      <point x="86" y="1462" type="line"/>
      <point x="86" y="1165" type="line"/>
      <point x="518" y="768" type="line"/>
      <point x="74" y="307" type="line"/>
    </contour>
  </outline>
</glyph>
<glyph name="afii10041" format="2">
  <advance width="1554"/>
  <unicode hex="0427"/>
  <anchor x="778" y="0" name="bottom"/>
  <anchor x="754" y="1462" name="top"/>
  <outline>
    <contour>
      <point x="1397" y="0" type="line"/>
      <point x="1397" y="1462" type="line"/>
      <point x="999" y="1462" type="line"/>
      <point x="999" y="844" type="line"/>
      <point x="872" y="797"/>
      <point x="766" y="776"/>
      <point x="684" y="776" type="curve" smooth="yes"/>
      <point x="549" y="776"/>
      <point x="504" y="844"/>
      <point x="504" y="975" type="curve" smooth="yes"/>
      <point x="504" y="1462" type="line"/>
      <point x="106" y="1462" type="line"/>
      <point x="106" y="844" type="line" smooth="yes"/>
      <point x="106" y="594"/>
      <point x="272" y="453"/>
      <point x="547" y="453" type="curve" smooth="yes"/>
      <point x="678" y="453"/>
      <point x="819" y="479"/>
      <point x="999" y="541" type="curve"/>
      <point x="999" y="0" type="line"/>
    </contour>
  </outline>
</glyph>
<glyph name="afii10046" format="2">
  <advance width="1315"/>
  <unicode hex="042C"/>
  <anchor x="657" y="0" name="bottom"/>
  <anchor x="657" y="1462" name="top"/>
  <outline>
    <contour>
      <point x="158" y="0" type="line"/>
      <point x="655" y="0" type="line" smooth="yes"/>
      <point x="1026" y="0"/>
      <point x="1245" y="188"/>
      <point x="1245" y="496" type="curve" smooth="yes"/>
      <point x="1245" y="762"/>
      <point x="1071" y="946"/>
      <point x="696" y="946" type="curve" smooth="yes"/>
      <point x="553" y="946" type="line"/>
      <point x="553" y="1462" type="line"/>
      <point x="158" y="1462" type="line"/>
    </contour>
    <contour>
      <point x="553" y="313" type="line"/>
      <point x="553" y="633" type="line"/>
      <point x="670" y="633" type="line" smooth="yes"/>
      <point x="772" y="633"/>
      <point x="850" y="578"/>
      <point x="850" y="477" type="curve" smooth="yes"/>
      <point x="850" y="371"/>
      <point x="791" y="313"/>
      <point x="662" y="313" type="curve" smooth="yes"/>
    </contour>
  </outline>
</glyph>
<glyph name="afii10081" format="2">
  <advance width="1346"/>
  <unicode hex="043F"/>
  <anchor x="674" y="0" name="bottom"/>
  <anchor x="674" y="1133" name="top"/>
  <outline>
    <contour>
      <point x="1210" y="1133" type="line"/>
      <point x="135" y="1133" type="line"/>
      <point x="135" y="0" type="line"/>
      <point x="526" y="0" type="line"/>
      <point x="526" y="842" type="line"/>
      <point x="819" y="842" type="line"/>
      <point x="819" y="0" type="line"/>
      <point x="1210" y="0" type="line"/>
    </contour>
  </outline>
</glyph>
<glyph name="afii10090" format="2">
  <advance width="2056"/>
  <unicode hex="0448"/>
  <anchor x="1028" y="0" name="bottom"/>
  <anchor x="1028" y="1133" name="top"/>
  <outline>
    <contour>
      <point x="1921" y="1133" type="line"/>
      <point x="1530" y="1133" type="line"/>
      <point x="1530" y="291" type="line"/>
      <point x="1221" y="291" type="line"/>
      <point x="1221" y="1133" type="line"/>
      <point x="840" y="1133" type="line"/>
      <point x="840" y="291" type="line"/>
      <point x="526" y="291" type="line"/>
      <point x="526" y="1133" type="line"/>
      <point x="135" y="1133" type="line"/>
      <point x="135" y="0" type="line"/>
      <point x="1921" y="0" type="line"/>
    </contour>
  </outline>
</glyph>
<glyph name="afii10106" format="2">
  <advance width="1903"/>
  <unicode hex="0459"/>
  <anchor x="952" y="0" name="bottom"/>
  <anchor x="952" y="1133" name="top"/>
  <outline>
    <contour>
      <point x="1241" y="1133" type="line"/>
      <point x="299" y="1133" type="line"/>
      <point x="248" y="371"/>
      <point x="186" y="283"/>
      <point x="104" y="283" type="curve" smooth="yes"/>
      <point x="70" y="283"/>
      <point x="43" y="287"/>
      <point x="16" y="301" type="curve"/>
      <point x="16" y="10" type="line"/>
      <point x="61" y="-8"/>
      <point x="131" y="-20"/>
      <point x="193" y="-20" type="curve" smooth="yes"/>
      <point x="504" y="-20"/>
      <point x="596" y="213"/>
      <point x="651" y="842" type="curve"/>
      <point x="850" y="842" type="line"/>
      <point x="850" y="0" type="line"/>
      <point x="1325" y="0" type="line" smooth="yes"/>
      <point x="1712" y="0"/>
      <point x="1837" y="147"/>
      <point x="1837" y="375" type="curve" smooth="yes"/>
      <point x="1837" y="606"/>
      <point x="1696" y="725"/>
      <point x="1278" y="725" type="curve" smooth="yes"/>
      <point x="1241" y="725" type="line"/>
    </contour>
    <contour>
      <point x="1303" y="469" type="line" smooth="yes"/>
      <point x="1417" y="469"/>
      <point x="1446" y="428"/>
      <point x="1446" y="358" type="curve" smooth="yes"/>
      <point x="1446" y="293"/>
      <point x="1403" y="256"/>
      <point x="1307" y="256" type="curve" smooth="yes"/>
      <point x="1241" y="256" type="line"/>
      <point x="1241" y="469" type="line"/>
    </contour>
  </outline>
</glyph>
<glyph name="uni0461" format="2">
  <advance width="1837"/>
  <unicode hex="0461"/>
  <anchor x="920" y="0" name="bottom"/>
  <anchor x="920" y="1133" name="top"/>
  <outline>
    <contour>
      <point x="1794" y="1133" type="curve"/>
      <point x="1421" y="1133" type="line"/>
      <point x="1423" y="795"/>
      <point x="1366" y="537"/>
      <point x="1278" y="315" type="curve"/>
      <point x="1270" y="315" type="line"/>
      <point x="1161" y="543"/>
      <point x="1098" y="862"/>
      <point x="1106" y="1133" type="curve"/>
      <point x="741" y="1133" type="line"/>
      <point x="739" y="987"/>
      <point x="754" y="854"/>
      <point x="778" y="743" type="curve"/>
      <point x="668" y="500" type="line" smooth="yes"/>
      <point x="639" y="436"/>
      <point x="612" y="371"/>
      <point x="588" y="305" type="curve"/>
      <point x="582" y="305" type="line"/>
      <point x="496" y="500"/>
      <point x="414" y="784"/>
      <point x="406" y="1133" type="curve"/>
      <point x="35" y="1133" type="line"/>
      <point x="18" y="735"/>
      <point x="205" y="268"/>
      <point x="385" y="0" type="curve"/>
      <point x="745" y="0" type="line"/>
      <point x="905" y="406" type="line"/>
      <point x="958" y="266"/>
      <point x="1034" y="100"/>
      <point x="1087" y="0" type="curve"/>
      <point x="1440" y="0" type="line"/>
      <point x="1700" y="397"/>
      <point x="1780" y="719"/>
    </contour>
  </outline>
</glyph>
<glyph name="uni0462" format="2">
  <advance width="1368"/>
  <unicode hex="0462"/>
  <anchor x="684" y="0" name="bottom"/>
  <anchor x="684" y="1462" name="top"/>
  <outline>
    <contour>
      <point x="211" y="0" type="line"/>
      <point x="709" y="0" type="line" smooth="yes"/>
      <point x="1079" y="0"/>
      <point x="1298" y="188"/>
      <point x="1298" y="477" type="curve" smooth="yes"/>
      <point x="1298" y="725"/>
      <point x="1124" y="909"/>
      <point x="750" y="909" type="curve" smooth="yes"/>
      <point x="606" y="909" type="line"/>
      <point x="606" y="1061" type="line"/>
      <point x="995" y="1061" type="line"/>
      <point x="995" y="1317" type="line"/>
      <point x="606" y="1317" type="line"/>
      <point x="606" y="1462" type="line"/>
      <point x="211" y="1462" type="line"/>
      <point x="211" y="1317" type="line"/>
      <point x="-8" y="1317" type="line"/>
      <point x="-8" y="1061" type="line"/>
      <point x="211" y="1061" type="line"/>
    </contour>
    <contour>
      <point x="606" y="313" type="line"/>
      <point x="606" y="596" type="line"/>
      <point x="723" y="596" type="line" smooth="yes"/>
      <point x="825" y="596"/>
      <point x="903" y="541"/>
      <point x="903" y="459" type="curve" smooth="yes"/>
      <point x="903" y="371"/>
      <point x="844" y="313"/>
      <point x="715" y="313" type="curve" smooth="yes"/>
    </contour>
  </outline>
</glyph>
<glyph name="uni0463" format="2">
  <advance width="1405"/>
  <unicode hex="0463"/>
  <anchor x="702" y="0" name="bottom"/>
  <anchor x="702" y="1360" name="top"/>
  <outline>
    <contour>
      <point x="641" y="1360" type="line"/>
      <point x="250" y="1360" type="line"/>
      <point x="250" y="1133" type="line"/>
      <point x="0" y="1133" type="line"/>
      <point x="0" y="877" type="line"/>
      <point x="250" y="877" type="line"/>
      <point x="250" y="0" type="line"/>
      <point x="807" y="0" type="line" smooth="yes"/>
      <point x="1194" y="0"/>
      <point x="1339" y="143"/>
      <point x="1339" y="371" type="curve" smooth="yes"/>
      <point x="1339" y="602"/>
      <point x="1165" y="717"/>
      <point x="780" y="717" type="curve" smooth="yes"/>
      <point x="641" y="717" type="line"/>
      <point x="641" y="877" type="line"/>
      <point x="1018" y="877" type="line"/>
      <point x="1018" y="1133" type="line"/>
      <point x="641" y="1133" type="line"/>
    </contour>
    <contour>
      <point x="784" y="461" type="line" smooth="yes"/>
      <point x="899" y="461"/>
      <point x="948" y="424"/>
      <point x="948" y="354" type="curve" smooth="yes"/>
      <point x="948" y="289"/>
      <point x="885" y="256"/>
      <point x="788" y="256" type="curve" smooth="yes"/>
      <point x="641" y="256" type="line"/>
      <point x="641" y="461" type="line"/>
    </contour>
  </outline>
</glyph>
<glyph name="uni0464" format="2">
  <advance width="1962"/>
  <unicode hex="0464"/>
  <anchor x="1391" y="0" name="bottom"/>
  <anchor x="1391" y="1462" name="top"/>
  <outline>
    <contour>
      <point x="1473" y="-20" type="curve" smooth="yes"/>
      <point x="1645" y="-20"/>
      <point x="1804" y="16"/>
      <point x="1921" y="68" type="curve"/>
      <point x="1921" y="395" type="line"/>
      <point x="1778" y="344"/>
      <point x="1659" y="309"/>
      <point x="1501" y="309" type="curve" smooth="yes"/>
      <point x="1292" y="309"/>
      <point x="1188" y="408"/>
      <point x="1176" y="578" type="curve"/>
      <point x="1755" y="578" type="line"/>
      <point x="1755" y="879" type="line"/>
      <point x="1176" y="879" type="line"/>
      <point x="1202" y="1071"/>
      <point x="1317" y="1155"/>
      <point x="1495" y="1155" type="curve" smooth="yes"/>
      <point x="1638" y="1155"/>
      <point x="1731" y="1112"/>
      <point x="1839" y="1051" type="curve"/>
      <point x="1966" y="1372" type="line"/>
      <point x="1845" y="1427"/>
      <point x="1686" y="1481"/>
      <point x="1491" y="1481" type="curve" smooth="yes"/>
      <point x="1065" y="1481"/>
      <point x="823" y="1235"/>
      <point x="772" y="879" type="curve"/>
      <point x="555" y="879" type="line"/>
      <point x="555" y="1462" type="line"/>
      <point x="158" y="1462" type="line"/>
      <point x="158" y="0" type="line"/>
      <point x="555" y="0" type="line"/>
      <point x="555" y="578" type="line"/>
      <point x="770" y="578" type="line"/>
      <point x="815" y="211"/>
      <point x="1034" y="-20"/>
    </contour>
  </outline>
</glyph>
<glyph name="uni0469" format="2">
  <advance width="2048"/>
  <unicode hex="0469"/>
  <anchor x="1331" y="0" name="bottom"/>
  <anchor x="1331" y="1133" name="top"/>
  <outline>
    <contour>
      <point x="1542" y="1133" type="line"/>
      <point x="1110" y="1133" type="line"/>
      <point x="924" y="725" type="line"/>
      <point x="506" y="725" type="line"/>
      <point x="506" y="1133" type="line"/>
      <point x="135" y="1133" type="line"/>
      <point x="135" y="0" type="line"/>
      <point x="506" y="0" type="line"/>
      <point x="506" y="434" type="line"/>
      <point x="793" y="434" type="line"/>
      <point x="596" y="0" type="line"/>
      <point x="973" y="0" type="line"/>
      <point x="1112" y="373" type="line"/>
      <point x="1174" y="373" type="line"/>
      <point x="1174" y="0" type="line"/>
      <point x="1487" y="0" type="line"/>
      <point x="1487" y="373" type="line"/>
      <point x="1548" y="373" type="line"/>
      <point x="1686" y="0" type="line"/>
      <point x="2062" y="0" type="line"/>
    </contour>
    <contour>
      <point x="1331" y="922" type="line"/>
      <point x="1350" y="862"/>
      <point x="1380" y="776"/>
      <point x="1411" y="707" type="curve" smooth="yes"/>
      <point x="1444" y="631" type="line"/>
      <point x="1217" y="631" type="line"/>
      <point x="1249" y="711" type="line" smooth="yes"/>
      <point x="1274" y="770"/>
      <point x="1307" y="860"/>
      <point x="1325" y="922" type="curve"/>
    </contour>
  </outline>
</glyph>
<glyph name="uni0473" format="2">
  <advance width="1305"/>
  <unicode hex="0473"/>
  <anchor x="653" y="0" name="bottom"/>
  <anchor x="653" y="1133" name="top"/>
  <outline>
    <contour>
      <point x="1217" y="569" type="curve" smooth="yes"/>
      <point x="1217" y="944"/>
      <point x="981" y="1153"/>
      <point x="655" y="1153" type="curve" smooth="yes"/>
      <point x="301" y="1153"/>
      <point x="86" y="944"/>
      <point x="86" y="569" type="curve" smooth="yes"/>
      <point x="86" y="190"/>
      <point x="322" y="-20"/>
      <point x="649" y="-20" type="curve" smooth="yes"/>
      <point x="1001" y="-20"/>
      <point x="1217" y="190"/>
    </contour>
    <contour>
      <point x="653" y="254" type="curve" smooth="yes"/>
      <point x="532" y="254"/>
      <point x="469" y="322"/>
      <point x="457" y="451" type="curve"/>
      <point x="846" y="451" type="line"/>
      <point x="838" y="322"/>
      <point x="772" y="254"/>
    </contour>
    <contour>
      <point x="651" y="879" type="curve" smooth="yes"/>
      <point x="776" y="879"/>
      <point x="840" y="807"/>
      <point x="848" y="672" type="curve"/>
      <point x="457" y="672" type="line"/>
      <point x="465" y="807"/>
      <point x="530" y="879"/>
    </contour>
  </outline>
</glyph>
<glyph name="uni0475" format="2">
  <advance width="1305"/>
  <unicode hex="0475"/>
  <anchor x="653" y="0" name="bottom"/>
  <anchor x="635" y="1133" name="top"/>
  <outline>
    <contour>
      <point x="1108" y="1153" type="curve" smooth="yes"/>
      <point x="907" y="1153"/>
      <point x="840" y="1065"/>
      <point x="756" y="811" type="curve" smooth="yes"/>
      <point x="643" y="461" type="line" smooth="yes"/>
      <point x="637" y="438"/>
      <point x="625" y="393"/>
      <point x="625" y="348" type="curve"/>
      <point x="616" y="348" type="line"/>
      <point x="616" y="391"/>
      <point x="604" y="451"/>
      <point x="600" y="463" type="curve" smooth="yes"/>
      <point x="408" y="1133" type="line"/>
      <point x="0" y="1133" type="line"/>
      <point x="432" y="0" type="line"/>
      <point x="819" y="0" type="line"/>
      <point x="1096" y="754" type="line" smooth="yes"/>
      <point x="1122" y="823"/>
      <point x="1147" y="850"/>
      <point x="1202" y="850" type="curve" smooth="yes"/>
      <point x="1225" y="850"/>
      <point x="1249" y="848"/>
      <point x="1284" y="836" type="curve"/>
      <point x="1284" y="1120" type="line"/>
      <point x="1217" y="1149"/>
      <point x="1124" y="1153"/>
    </contour>
  </outline>
</glyph>
<glyph name="uni047A" format="2">
  <advance width="1714"/>
  <unicode hex="047A"/>
  <outline>
    <contour>
      <point x="860" y="-127" type="curve" smooth="yes"/>
      <point x="934" y="-127"/>
      <point x="985" y="-90"/>
      <point x="1008" y="-10" type="curve"/>
      <point x="1427" y="41"/>
      <point x="1608" y="326"/>
      <point x="1608" y="733" type="curve" smooth="yes"/>
      <point x="1608" y="1143"/>
      <point x="1427" y="1423"/>
      <point x="1008" y="1475" type="curve"/>
      <point x="983" y="1556"/>
      <point x="934" y="1587"/>
      <point x="860" y="1587" type="curve" smooth="yes"/>
      <point x="780" y="1587"/>
      <point x="731" y="1556"/>
      <point x="709" y="1475" type="curve"/>
      <point x="291" y="1423"/>
      <point x="104" y="1143"/>
      <point x="104" y="735" type="curve" smooth="yes"/>
      <point x="104" y="324"/>
      <point x="291" y="41"/>
      <point x="709" y="-10" type="curve"/>
      <point x="731" y="-92"/>
      <point x="780" y="-127"/>
    </contour>
    <contour>
      <point x="717" y="332" type="curve"/>
      <point x="578" y="385"/>
      <point x="520" y="528"/>
      <point x="520" y="733" type="curve" smooth="yes"/>
      <point x="520" y="936"/>
      <point x="575" y="1079"/>
      <point x="713" y="1135" type="curve"/>
      <point x="739" y="1069"/>
      <point x="786" y="1032"/>
      <point x="856" y="1032" type="curve" smooth="yes"/>
      <point x="930" y="1032"/>
      <point x="977" y="1067"/>
      <point x="1001" y="1135" type="curve"/>
      <point x="1139" y="1079"/>
      <point x="1192" y="936"/>
      <point x="1192" y="733" type="curve" smooth="yes"/>
      <point x="1192" y="528"/>
      <point x="1139" y="385"/>
      <point x="999" y="332" type="curve"/>
      <point x="973" y="393"/>
      <point x="928" y="428"/>
      <point x="856" y="428" type="curve" smooth="yes"/>
      <point x="788" y="428"/>
      <point x="743" y="393"/>
    </contour>
  </outline>
</glyph>
<glyph name="uni0488" format="2">
  <advance width="2017"/>
  <unicode hex="0488"/>
  <outline>
    <contour>
      <point x="1352" y="934" type="curve"/>
      <point x="1470" y="934" type="line"/>
      <point x="1475" y="991"/>
      <point x="1546" y="999"/>
      <point x="1593" y="999" type="curve" smooth="yes"/>
      <point x="1655" y="999"/>
      <point x="1714" y="995"/>
      <point x="1718" y="934" type="curve"/>
      <point x="1833" y="934" type="line"/>
      <point x="1827" y="1059"/>
      <point x="1735" y="1141"/>
      <point x="1593" y="1141" type="curve" smooth="yes"/>
      <point x="1460" y="1141"/>
      <point x="1358" y="1055"/>
    </contour>
    <contour>
      <point x="184" y="-41" type="curve"/>
      <point x="303" y="-41" type="line"/>
      <point x="307" y="16"/>
      <point x="379" y="25"/>
      <point x="426" y="25" type="curve" smooth="yes"/>
      <point x="487" y="25"/>
      <point x="547" y="20"/>
      <point x="551" y="-41" type="curve"/>
      <point x="666" y="-41" type="line"/>
      <point x="659" y="84"/>
      <point x="567" y="166"/>
      <point x="426" y="166" type="curve" smooth="yes"/>
      <point x="293" y="166"/>
      <point x="190" y="80"/>
    </contour>
    <contour>
      <point x="760" y="-319" type="curve"/>
      <point x="879" y="-319" type="line"/>
      <point x="883" y="-262"/>
      <point x="954" y="-254"/>
      <point x="1001" y="-254" type="curve" smooth="yes"/>
      <point x="1063" y="-254"/>
      <point x="1122" y="-258"/>
      <point x="1126" y="-319" type="curve"/>
      <point x="1241" y="-319" type="line"/>
      <point x="1235" y="-195"/>
      <point x="1143" y="-113"/>
      <point x="1001" y="-113" type="curve" smooth="yes"/>
      <point x="868" y="-113"/>
      <point x="766" y="-199"/>
    </contour>
    <contour>
      <point x="37" y="453" type="curve"/>
      <point x="156" y="453" type="line"/>
      <point x="160" y="510"/>
      <point x="231" y="518"/>
      <point x="279" y="518" type="curve" smooth="yes"/>
      <point x="340" y="518"/>
      <point x="399" y="514"/>
      <point x="403" y="453" type="curve"/>
      <point x="518" y="453" type="line"/>
      <point x="512" y="578"/>
      <point x="420" y="659"/>
      <point x="279" y="659" type="curve" smooth="yes"/>
      <point x="145" y="659"/>
      <point x="43" y="573"/>
    </contour>
    <contour>
      <point x="184" y="934" type="curve"/>
      <point x="303" y="934" type="line"/>
      <point x="307" y="991"/>
      <point x="379" y="999"/>
      <point x="426" y="999" type="curve" smooth="yes"/>
      <point x="487" y="999"/>
      <point x="547" y="995"/>
      <point x="551" y="934" type="curve"/>
      <point x="666" y="934" type="line"/>
      <point x="659" y="1059"/>
      <point x="567" y="1141"/>
      <point x="426" y="1141" type="curve" smooth="yes"/>
      <point x="293" y="1141"/>
      <point x="190" y="1055"/>
    </contour>
    <contour>
      <point x="1352" y="-41" type="curve"/>
      <point x="1470" y="-41" type="line"/>
      <point x="1475" y="16"/>
      <point x="1546" y="25"/>
      <point x="1593" y="25" type="curve" smooth="yes"/>
      <point x="1655" y="25"/>
      <point x="1714" y="20"/>
      <point x="1718" y="-41" type="curve"/>
      <point x="1833" y="-41" type="line"/>
      <point x="1827" y="84"/>
      <point x="1735" y="166"/>
      <point x="1593" y="166" type="curve" smooth="yes"/>
      <point x="1460" y="166"/>
      <point x="1358" y="80"/>
    </contour>
    <contour>
      <point x="1499" y="453" type="curve"/>
      <point x="1618" y="453" type="line"/>
      <point x="1622" y="510"/>
      <point x="1694" y="518"/>
      <point x="1741" y="518" type="curve" smooth="yes"/>
      <point x="1802" y="518"/>
      <point x="1862" y="514"/>
      <point x="1866" y="453" type="curve"/>
      <point x="1980" y="453" type="line"/>
      <point x="1974" y="578"/>
      <point x="1882" y="659"/>
      <point x="1741" y="659" type="curve" smooth="yes"/>
      <point x="1608" y="659"/>
      <point x="1505" y="573"/>
    </contour>
    <contour>
      <point x="760" y="1219" type="curve"/>
      <point x="879" y="1219" type="line"/>
      <point x="883" y="1276"/>
      <point x="954" y="1284"/>
      <point x="1001" y="1284" type="curve" smooth="yes"/>
      <point x="1063" y="1284"/>
      <point x="1122" y="1280"/>
      <point x="1126" y="1219" type="curve"/>
      <point x="1241" y="1219" type="line"/>
      <point x="1235" y="1343"/>
      <point x="1143" y="1425"/>
      <point x="1001" y="1425" type="curve" smooth="yes"/>
      <point x="868" y="1425"/>
      <point x="766" y="1339"/>
    </contour>
  </outline>
</glyph>
<glyph name="uni048F" format="2">
  <advance width="1366"/>
  <unicode hex="048F"/>
  <anchor x="684" y="-492" name="bottom"/>
  <anchor x="684" y="1133" name="top"/>
  <outline>
    <contour>
      <point x="836" y="-20" type="curve" smooth="yes"/>
      <point x="854" y="-20"/>
      <point x="872" y="-18"/>
      <point x="891" y="-16" type="curve"/>
      <point x="997" y="-186" type="line"/>
      <point x="1200" y="-59" type="line"/>
      <point x="1110" y="84" type="line"/>
      <point x="1214" y="180"/>
      <point x="1278" y="344"/>
      <point x="1278" y="569" type="curve" smooth="yes"/>
      <point x="1278" y="946"/>
      <point x="1106" y="1153"/>
      <point x="850" y="1153" type="curve" smooth="yes"/>
      <point x="686" y="1153"/>
      <point x="588" y="1077"/>
      <point x="526" y="989" type="curve"/>
      <point x="508" y="989" type="line"/>
      <point x="453" y="1133" type="line"/>
      <point x="135" y="1133" type="line"/>
      <point x="135" y="-492" type="line"/>
      <point x="526" y="-492" type="line"/>
      <point x="526" y="-37" type="line" smooth="yes"/>
      <point x="526" y="-12"/>
      <point x="516" y="61"/>
      <point x="508" y="111" type="curve"/>
      <point x="526" y="111" type="line"/>
      <point x="588" y="47"/>
      <point x="670" y="-20"/>
    </contour>
    <contour>
      <point x="709" y="848" type="curve" smooth="yes"/>
      <point x="827" y="848"/>
      <point x="887" y="772"/>
      <point x="887" y="573" type="curve" smooth="yes"/>
      <point x="887" y="530"/>
      <point x="883" y="492"/>
      <point x="879" y="457" type="curve"/>
      <point x="788" y="602" type="line"/>
      <point x="584" y="473" type="line"/>
      <point x="709" y="274" type="line"/>
      <point x="707" y="274"/>
      <point x="705" y="274"/>
      <point x="702" y="274" type="curve" smooth="yes"/>
      <point x="551" y="274"/>
      <point x="526" y="424"/>
      <point x="526" y="571" type="curve" smooth="yes"/>
      <point x="526" y="602" type="line" smooth="yes"/>
      <point x="530" y="764"/>
      <point x="575" y="848"/>
    </contour>
  </outline>
</glyph>
<glyph name="afii10050" format="2">
  <advance width="1243"/>
  <unicode hex="0490"/>
  <anchor x="623" y="0" name="bottom"/>
  <anchor x="623" y="1776" name="top"/>
  <outline>
    <contour>
      <point x="1206" y="1776" type="line"/>
      <point x="860" y="1776" type="line"/>
      <point x="860" y="1462" type="line"/>
      <point x="158" y="1462" type="line"/>
      <point x="158" y="0" type="line"/>
      <point x="555" y="0" type="line"/>
      <point x="555" y="1143" type="line"/>
      <point x="1206" y="1143" type="line"/>
    </contour>
  </outline>
</glyph>
<glyph name="uni0492" format="2">
  <advance width="1184"/>
  <unicode hex="0492"/>
  <anchor x="592" y="0" name="bottom"/>
  <anchor x="592" y="1462" name="top"/>
  <outline>
    <contour>
      <point x="1133" y="1462" type="line"/>
      <point x="199" y="1462" type="line"/>
      <point x="199" y="883" type="line"/>
      <point x="20" y="883" type="line"/>
      <point x="20" y="563" type="line"/>
      <point x="199" y="563" type="line"/>
      <point x="199" y="0" type="line"/>
      <point x="596" y="0" type="line"/>
      <point x="596" y="563" type="line"/>
      <point x="954" y="563" type="line"/>
      <point x="954" y="883" type="line"/>
      <point x="596" y="883" type="line"/>
      <point x="596" y="1143" type="line"/>
      <point x="1133" y="1143" type="line"/>
    </contour>
  </outline>
</glyph>
<glyph name="uni04A9" format="2">
  <advance width="1407"/>
  <unicode hex="04A9"/>
  <anchor x="705" y="0" name="bottom"/>
  <anchor x="705" y="1133" name="top"/>
  <outline>
    <contour>
      <point x="639" y="1153" type="curve" smooth="yes"/>
      <point x="236" y="1153"/>
      <point x="86" y="885"/>
      <point x="86" y="567" type="curve" smooth="yes"/>
      <point x="86" y="188"/>
      <point x="291" y="-20"/>
      <point x="629" y="-20" type="curve" smooth="yes"/>
      <point x="733" y="-20"/>
      <point x="829" y="-2"/>
      <point x="891" y="18" type="curve"/>
      <point x="965" y="-37"/>
      <point x="1049" y="-68"/>
      <point x="1163" y="-68" type="curve" smooth="yes"/>
      <point x="1249" y="-68"/>
      <point x="1317" y="-49"/>
      <point x="1358" y="-31" type="curve"/>
      <point x="1358" y="213" type="line"/>
      <point x="1331" y="201"/>
      <point x="1278" y="188"/>
      <point x="1235" y="188" type="curve" smooth="yes"/>
      <point x="1223" y="188"/>
      <point x="1214" y="188"/>
      <point x="1208" y="188" type="curve"/>
      <point x="1272" y="240"/>
      <point x="1341" y="340"/>
      <point x="1341" y="498" type="curve" smooth="yes"/>
      <point x="1341" y="725"/>
      <point x="1202" y="850"/>
      <point x="991" y="850" type="curve" smooth="yes"/>
      <point x="739" y="850"/>
      <point x="627" y="690"/>
      <point x="627" y="498" type="curve" smooth="yes"/>
      <point x="627" y="399"/>
      <point x="659" y="313"/>
      <point x="692" y="264" type="curve"/>
      <point x="684" y="264"/>
      <point x="668" y="264"/>
      <point x="659" y="264" type="curve" smooth="yes"/>
      <point x="553" y="270"/>
      <point x="477" y="344"/>
      <point x="477" y="565" type="curve" smooth="yes"/>
      <point x="477" y="780"/>
      <point x="551" y="862"/>
      <point x="682" y="862" type="curve" smooth="yes"/>
      <point x="729" y="862"/>
      <point x="764" y="852"/>
      <point x="786" y="842" type="curve"/>
      <point x="879" y="1104" type="line"/>
      <point x="811" y="1135"/>
      <point x="725" y="1153"/>
    </contour>
    <contour>
      <point x="987" y="584" type="curve" smooth="yes"/>
      <point x="1032" y="584"/>
      <point x="1061" y="545"/>
      <point x="1061" y="489" type="curve" smooth="yes"/>
      <point x="1061" y="418"/>
      <point x="1036" y="350"/>
      <point x="975" y="313" type="curve"/>
      <point x="932" y="356"/>
      <point x="909" y="420"/>
      <point x="909" y="483" type="curve" smooth="yes"/>
      <point x="909" y="551"/>
      <point x="940" y="584"/>
    </contour>
  </outline>
</glyph>
<glyph name="uni04B2" format="2">
  <advance width="1628"/>
  <unicode hex="04B2"/>
  <anchor x="815" y="-455" name="bottom"/>
  <anchor x="815" y="1462" name="top"/>
  <outline>
    <contour>
      <point x="1206" y="-455" type="line"/>
      <point x="1591" y="-455" type="line"/>
      <point x="1591" y="324" type="line"/>
      <point x="1249" y="324" type="line"/>
      <point x="977" y="717" type="line"/>
      <point x="1440" y="1462" type="line"/>
      <point x="989" y="1462" type="line"/>
      <point x="735" y="1010" type="line"/>
      <point x="471" y="1462" type="line"/>
      <point x="33" y="1462" type="line"/>
      <point x="489" y="748" type="line"/>
      <point x="4" y="0" type="line"/>
      <point x="451" y="0" type="line"/>
      <point x="733" y="457" type="line"/>
      <point x="1018" y="0" type="line"/>
      <point x="1206" y="0" type="line"/>
    </contour>
  </outline>
</glyph>
<glyph name="uni04BA" format="2">
  <advance width="1554"/>
  <unicode hex="04BA"/>
  <anchor x="778" y="0" name="bottom"/>
  <anchor x="778" y="1462" name="top"/>
  <outline>
    <contour>
      <point x="158" y="1462" type="line"/>
      <point x="158" y="0" type="line"/>
      <point x="555" y="0" type="line"/>
      <point x="555" y="618" type="line"/>
      <point x="682" y="666"/>
      <point x="788" y="686"/>
      <point x="870" y="686" type="curve" smooth="yes"/>
      <point x="1006" y="686"/>
      <point x="1051" y="618"/>
      <point x="1051" y="487" type="curve" smooth="yes"/>
      <point x="1051" y="0" type="line"/>
      <point x="1448" y="0" type="line"/>
      <point x="1448" y="618" type="line" smooth="yes"/>
      <point x="1448" y="868"/>
      <point x="1282" y="1010"/>
      <point x="1008" y="1010" type="curve" smooth="yes"/>
      <point x="877" y="1010"/>
      <point x="735" y="983"/>
      <point x="555" y="922" type="curve"/>
      <point x="555" y="1462" type="line"/>
    </contour>
  </outline>
</glyph>
<glyph name="uni04FC" format="2">
  <advance width="1624"/>
  <unicode hex="04FC"/>
  <anchor x="813" y="-559" name="bottom"/>
  <anchor x="813" y="1462" name="top"/>
  <outline>
    <contour>
      <point x="1153" y="-559" type="curve" smooth="yes"/>
      <point x="1466" y="-559"/>
      <point x="1583" y="-344"/>
      <point x="1583" y="-119" type="curve" smooth="yes"/>
      <point x="1583" y="336" type="line"/>
      <point x="1241" y="336" type="line"/>
      <point x="977" y="717" type="line"/>
      <point x="1440" y="1462" type="line"/>
      <point x="989" y="1462" type="line"/>
      <point x="735" y="1010" type="line"/>
      <point x="471" y="1462" type="line"/>
      <point x="33" y="1462" type="line"/>
      <point x="489" y="748" type="line"/>
      <point x="4" y="0" type="line"/>
      <point x="451" y="0" type="line"/>
      <point x="733" y="457" type="line"/>
      <point x="1018" y="0" type="line"/>
      <point x="1196" y="0" type="line"/>
      <point x="1196" y="-37" type="line" smooth="yes"/>
      <point x="1196" y="-213"/>
      <point x="1128" y="-250"/>
      <point x="1055" y="-250" type="curve" smooth="yes"/>
      <point x="1010" y="-250"/>
      <point x="981" y="-246"/>
      <point x="928" y="-231" type="curve"/>
      <point x="928" y="-535" type="line"/>
      <point x="983" y="-551"/>
      <point x="1081" y="-559"/>
    </contour>
  </outline>
</glyph>
<glyph name="uni04FE" format="2">
  <advance width="1481"/>
  <unicode hex="04FE"/>
  <anchor x="741" y="0" name="bottom"/>
  <anchor x="741" y="1462" name="top"/>
  <outline>
    <contour>
      <point x="104" y="885" type="line"/>
      <point x="104" y="567" type="line"/>
      <point x="373" y="567" type="line"/>
      <point x="4" y="0" type="line"/>
      <point x="451" y="0" type="line"/>
      <point x="733" y="457" type="line"/>
      <point x="1018" y="0" type="line"/>
      <point x="1475" y="0" type="line"/>
      <point x="1079" y="567" type="line"/>
      <point x="1368" y="567" type="line"/>
      <point x="1368" y="885" type="line"/>
      <point x="1081" y="885" type="line"/>
      <point x="1440" y="1462" type="line"/>
      <point x="989" y="1462" type="line"/>
      <point x="735" y="1010" type="line"/>
      <point x="471" y="1462" type="line"/>
      <point x="33" y="1462" type="line"/>
      <point x="401" y="885" type="line"/>
    </contour>
  </outline>
</glyph>
<glyph name="uni04FF" format="2">
  <advance width="1290"/>
  <unicode hex="04FF"/>
  <anchor x="645" y="0" name="bottom"/>
  <anchor x="645" y="1133" name="top"/>
  <outline>
    <contour>
      <point x="80" y="711" type="line"/>
      <point x="80" y="420" type="line"/>
      <point x="295" y="420" type="line"/>
      <point x="10" y="0" type="line"/>
      <point x="455" y="0" type="line"/>
      <point x="645" y="344" type="line"/>
      <point x="836" y="0" type="line"/>
      <point x="1280" y="0" type="line"/>
      <point x="991" y="420" type="line"/>
      <point x="1204" y="420" type="line"/>
      <point x="1204" y="711" type="line"/>
      <point x="975" y="711" type="line"/>
      <point x="1266" y="1133" type="line"/>
      <point x="821" y="1133" type="line"/>
      <point x="645" y="815" type="line"/>
      <point x="473" y="1133" type="line"/>
      <point x="29" y="1133" type="line"/>
      <point x="311" y="711" type="line"/>
    </contour>
  </outline>
</glyph>
<glyph name="uni0504" format="2">
  <advance width="1903"/>
  <unicode hex="0504"/>
  <anchor x="952" y="0" name="bottom"/>
  <anchor x="952" y="1462" name="top"/>
  <outline>
    <contour>
      <point x="575" y="1483" type="curve" smooth="yes"/>
      <point x="326" y="1483"/>
      <point x="166" y="1425"/>
      <point x="10" y="1319" type="curve"/>
      <point x="176" y="1047" type="line"/>
      <point x="268" y="1118"/>
      <point x="387" y="1159"/>
      <point x="492" y="1159" type="curve" smooth="yes"/>
      <point x="623" y="1159"/>
      <point x="674" y="1118"/>
      <point x="674" y="1049" type="curve" smooth="yes"/>
      <point x="674" y="963"/>
      <point x="608" y="922"/>
      <point x="420" y="922" type="curve" smooth="yes"/>
      <point x="231" y="922" type="line"/>
      <point x="231" y="602" type="line"/>
      <point x="436" y="602" type="line" smooth="yes"/>
      <point x="625" y="602"/>
      <point x="721" y="553"/>
      <point x="721" y="436" type="curve" smooth="yes"/>
      <point x="721" y="111"/>
      <point x="883" y="-20"/>
      <point x="1251" y="-20" type="curve" smooth="yes"/>
      <point x="1618" y="-20"/>
      <point x="1772" y="129"/>
      <point x="1772" y="459" type="curve" smooth="yes"/>
      <point x="1772" y="848" type="line"/>
      <point x="1374" y="848" type="line"/>
      <point x="1374" y="477" type="line" smooth="yes"/>
      <point x="1374" y="348"/>
      <point x="1339" y="305"/>
      <point x="1251" y="305" type="curve" smooth="yes"/>
      <point x="1153" y="305"/>
      <point x="1126" y="340"/>
      <point x="1126" y="446" type="curve" smooth="yes"/>
      <point x="1126" y="610"/>
      <point x="997" y="741"/>
      <point x="727" y="764" type="curve"/>
      <point x="727" y="772" type="line"/>
      <point x="948" y="811"/>
      <point x="1071" y="926"/>
      <point x="1071" y="1120" type="curve" smooth="yes"/>
      <point x="1071" y="1331"/>
      <point x="883" y="1483"/>
    </contour>
  </outline>
</glyph>
<glyph name="uni0522" format="2">
  <advance width="2345"/>
  <unicode hex="0522"/>
  <anchor x="1206" y="-512" name="bottom"/>
  <anchor x="1206" y="1462" name="top"/>
  <outline>
    <contour>
      <point x="1391" y="793" type="curve"/>
      <point x="1391" y="1462" type="line"/>
      <point x="987" y="1462" type="line"/>
      <point x="987" y="924" type="line"/>
      <point x="575" y="924" type="line"/>
      <point x="575" y="1462" type="line"/>
      <point x="174" y="1462" type="line"/>
      <point x="174" y="0" type="line"/>
      <point x="575" y="0" type="line"/>
      <point x="575" y="592" type="line"/>
      <point x="987" y="592" type="line"/>
      <point x="987" y="0" type="line"/>
      <point x="1391" y="0" type="line"/>
      <point x="1391" y="449" type="line"/>
      <point x="1425" y="459"/>
      <point x="1470" y="471"/>
      <point x="1554" y="471" type="curve" smooth="yes"/>
      <point x="1776" y="471"/>
      <point x="1882" y="350"/>
      <point x="1882" y="147" type="curve" smooth="yes"/>
      <point x="1882" y="-66"/>
      <point x="1776" y="-170"/>
      <point x="1599" y="-170" type="curve" smooth="yes"/>
      <point x="1516" y="-170"/>
      <point x="1458" y="-156"/>
      <point x="1403" y="-137" type="curve"/>
      <point x="1403" y="-465" type="line"/>
      <point x="1470" y="-494"/>
      <point x="1554" y="-512"/>
      <point x="1675" y="-512" type="curve" smooth="yes"/>
      <point x="1925" y="-512"/>
      <point x="2271" y="-315"/>
      <point x="2271" y="135" type="curve" smooth="yes"/>
      <point x="2271" y="664"/>
      <point x="1950" y="827"/>
      <point x="1626" y="827" type="curve" smooth="yes"/>
      <point x="1538" y="827"/>
      <point x="1454" y="811"/>
    </contour>
  </outline>
</glyph>
<glyph name="uni0528" format="2">
  <advance width="1569"/>
  <unicode hex="0528"/>
  <anchor x="784" y="-547" name="bottom"/>
  <anchor x="784" y="1462" name="top"/>
  <outline>
    <contour>
      <point x="158" y="-125" type="line" smooth="yes"/>
      <point x="158" y="-201"/>
      <point x="113" y="-236"/>
      <point x="59" y="-236" type="curve"/>
      <point x="12" y="-236"/>
      <point x="-35" y="-221"/>
      <point x="-53" y="-215" type="curve"/>
      <point x="-53" y="-512" type="line"/>
      <point x="-25" y="-524"/>
      <point x="55" y="-547"/>
      <point x="133" y="-547" type="curve"/>
      <point x="395" y="-547"/>
      <point x="555" y="-430"/>
      <point x="555" y="-139" type="curve" smooth="yes"/>
      <point x="555" y="596" type="line"/>
      <point x="1014" y="596" type="line"/>
      <point x="1014" y="0" type="line"/>
      <point x="1411" y="0" type="line"/>
      <point x="1411" y="1462" type="line"/>
      <point x="1014" y="1462" type="line"/>
      <point x="1014" y="920" type="line"/>
      <point x="555" y="920" type="line"/>
      <point x="555" y="1462" type="line"/>
      <point x="158" y="1462" type="line"/>
    </contour>
  </outline>
</glyph>
<glyph name="uni1D27" format="2">
  <advance width="1251"/>
  <unicode hex="1D27"/>
  <outline>
    <contour>
      <point x="0" y="0" type="line"/>
      <point x="408" y="0" type="line"/>
      <point x="594" y="637" type="line" smooth="yes"/>
      <point x="608" y="686"/>
      <point x="623" y="741"/>
      <point x="629" y="784" type="curve"/>
      <point x="633" y="741"/>
      <point x="647" y="682"/>
      <point x="662" y="635" type="curve" smooth="yes"/>
      <point x="844" y="0" type="line"/>
      <point x="1251" y="0" type="line"/>
      <point x="819" y="1133" type="line"/>
      <point x="432" y="1133" type="line"/>
    </contour>
  </outline>
</glyph>
<glyph name="uni1D81" format="2">
  <advance width="1321"/>
  <unicode hex="1D81"/>
  <outline>
    <contour>
      <point x="956" y="-514" type="curve"/>
      <point x="1163" y="-514"/>
      <point x="1280" y="-403"/>
      <point x="1280" y="-129" type="curve"/>
      <point x="1280" y="270" type="line"/>
      <point x="1128" y="270" type="line"/>
      <point x="967" y="41" type="line"/>
      <point x="967" y="-123" type="line" smooth="yes"/>
      <point x="967" y="-223"/>
      <point x="934" y="-250"/>
      <point x="862" y="-250" type="curve"/>
      <point x="831" y="-250"/>
      <point x="799" y="-244"/>
      <point x="766" y="-231" type="curve"/>
      <point x="766" y="-485" type="line"/>
      <point x="823" y="-506"/>
      <point x="885" y="-514"/>
    </contour>
    <component base="d"/>
  </outline>
</glyph>
<glyph name="uni1D82" format="2">
  <advance width="846"/>
  <unicode hex="1D82"/>
  <outline>
    <contour>
      <point x="373" y="-514" type="curve"/>
      <point x="580" y="-514"/>
      <point x="696" y="-403"/>
      <point x="696" y="-129" type="curve"/>
      <point x="696" y="270" type="line"/>
      <point x="545" y="270" type="line"/>
      <point x="383" y="41" type="line"/>
      <point x="383" y="-123" type="line" smooth="yes"/>
      <point x="383" y="-223"/>
      <point x="348" y="-250"/>
      <point x="276" y="-250" type="curve"/>
      <point x="248" y="-250"/>
      <point x="215" y="-244"/>
      <point x="182" y="-231" type="curve"/>
      <point x="182" y="-485" type="line"/>
      <point x="240" y="-506"/>
      <point x="301" y="-514"/>
    </contour>
    <component base="f"/>
  </outline>
</glyph>
<glyph name="uni1D8A" format="2">
  <advance width="1042"/>
  <unicode hex="1D8A"/>
  <outline>
    <contour>
      <point x="547" y="1151" type="curve"/>
      <point x="264" y="1151"/>
      <point x="84" y="1047"/>
      <point x="84" y="827" type="curve"/>
      <point x="84" y="631"/>
      <point x="158" y="551"/>
      <point x="367" y="459" type="curve"/>
      <point x="586" y="360"/>
      <point x="590" y="344"/>
      <point x="590" y="307" type="curve"/>
      <point x="590" y="276"/>
      <point x="563" y="254"/>
      <point x="485" y="254" type="curve"/>
      <point x="393" y="254"/>
      <point x="229" y="289"/>
      <point x="86" y="352" type="curve"/>
      <point x="86" y="43" type="line"/>
      <point x="217" y="-6"/>
      <point x="313" y="-20"/>
      <point x="471" y="-20" type="curve"/>
      <point x="514" y="-20"/>
      <point x="555" y="-18"/>
      <point x="594" y="-14" type="curve"/>
      <point x="594" y="-123" type="line" smooth="yes"/>
      <point x="594" y="-223"/>
      <point x="561" y="-250"/>
      <point x="489" y="-250" type="curve"/>
      <point x="459" y="-250"/>
      <point x="426" y="-244"/>
      <point x="393" y="-231" type="curve"/>
      <point x="393" y="-485" type="line"/>
      <point x="451" y="-506"/>
      <point x="512" y="-514"/>
      <point x="584" y="-514" type="curve"/>
      <point x="793" y="-514"/>
      <point x="907" y="-403"/>
      <point x="907" y="-129" type="curve"/>
      <point x="907" y="127" type="line"/>
      <point x="952" y="186"/>
      <point x="973" y="260"/>
      <point x="973" y="350" type="curve"/>
      <point x="973" y="563"/>
      <point x="852" y="635"/>
      <point x="674" y="713" type="curve"/>
      <point x="487" y="793"/>
      <point x="473" y="813"/>
      <point x="473" y="842" type="curve"/>
      <point x="473" y="868"/>
      <point x="496" y="877"/>
      <point x="547" y="877" type="curve"/>
      <point x="643" y="877"/>
      <point x="733" y="838"/>
      <point x="856" y="786" type="curve"/>
      <point x="967" y="1055" type="line"/>
      <point x="815" y="1126"/>
      <point x="690" y="1151"/>
    </contour>
  </outline>
</glyph>
<glyph name="uni1D91" format="2">
  <advance width="1321"/>
  <unicode hex="1D91"/>
  <outline>
    <contour>
      <point x="1159" y="-492" type="curve"/>
      <point x="1247" y="-492"/>
      <point x="1327" y="-469"/>
      <point x="1376" y="-451" type="curve"/>
      <point x="1376" y="-160" type="line"/>
      <point x="1335" y="-172"/>
      <point x="1305" y="-178"/>
      <point x="1262" y="-178" type="curve" smooth="yes"/>
      <point x="1210" y="-178"/>
      <point x="1182" y="-143"/>
      <point x="1182" y="-80" type="curve"/>
      <point x="1182" y="1167" type="line" smooth="yes"/>
      <point x="1182" y="1233"/>
      <point x="1217" y="1270"/>
      <point x="1274" y="1270" type="curve" smooth="yes"/>
      <point x="1329" y="1270"/>
      <point x="1378" y="1260"/>
      <point x="1403" y="1251" type="curve"/>
      <point x="1403" y="1548" type="line"/>
      <point x="1364" y="1561"/>
      <point x="1270" y="1577"/>
      <point x="1157" y="1577" type="curve" smooth="yes"/>
      <point x="948" y="1577"/>
      <point x="788" y="1470"/>
      <point x="788" y="1225" type="curve" smooth="yes"/>
      <point x="788" y="1192" type="line" smooth="yes"/>
      <point x="788" y="1124"/>
      <point x="795" y="1055"/>
      <point x="805" y="989" type="curve"/>
      <point x="797" y="989" type="line"/>
      <point x="737" y="1083"/>
      <point x="653" y="1153"/>
      <point x="502" y="1153" type="curve" smooth="yes"/>
      <point x="256" y="1153"/>
      <point x="86" y="952"/>
      <point x="86" y="565" type="curve" smooth="yes"/>
      <point x="86" y="182"/>
      <point x="254" y="-20"/>
      <point x="487" y="-20" type="curve"/>
      <point x="653" y="-20"/>
      <point x="735" y="57"/>
      <point x="784" y="135" type="curve"/>
      <point x="797" y="135" type="line"/>
      <point x="791" y="78"/>
      <point x="784" y="2"/>
      <point x="784" y="-80" type="curve"/>
      <point x="784" y="-104" type="line" smooth="yes"/>
      <point x="784" y="-332"/>
      <point x="872" y="-492"/>
    </contour>
    <contour>
      <point x="647" y="289" type="curve" smooth="yes"/>
      <point x="549" y="289"/>
      <point x="481" y="371"/>
      <point x="481" y="559" type="curve" smooth="yes"/>
      <point x="481" y="750"/>
      <point x="549" y="838"/>
      <point x="643" y="838" type="curve" smooth="yes"/>
      <point x="780" y="838"/>
      <point x="821" y="739"/>
      <point x="821" y="561" type="curve" smooth="yes"/>
      <point x="821" y="530" type="line" smooth="yes"/>
      <point x="817" y="367"/>
      <point x="772" y="289"/>
    </contour>
  </outline>
</glyph>
<glyph name="uni1FC1" format="2">
  <advance width="1188"/>
  <unicode hex="1FC1"/>
  <anchor x="588" y="1133" name="_top"/>
  <outline>
    <contour>
      <point x="205" y="1532" type="curve"/>
      <point x="360" y="1532" type="line"/>
      <point x="377" y="1602"/>
      <point x="406" y="1610"/>
      <point x="430" y="1610" type="curve"/>
      <point x="526" y="1610"/>
      <point x="647" y="1534"/>
      <point x="762" y="1534" type="curve" smooth="yes"/>
      <point x="870" y="1534"/>
      <point x="965" y="1610"/>
      <point x="983" y="1792" type="curve"/>
      <point x="825" y="1792" type="line"/>
      <point x="811" y="1724"/>
      <point x="780" y="1714"/>
      <point x="756" y="1714" type="curve" smooth="yes"/>
      <point x="655" y="1714"/>
      <point x="528" y="1790"/>
      <point x="430" y="1790" type="curve" smooth="yes"/>
      <point x="307" y="1790"/>
      <point x="221" y="1718"/>
    </contour>
    <contour>
      <point x="375" y="1190" type="curve"/>
      <point x="465" y="1190"/>
      <point x="528" y="1239"/>
      <point x="528" y="1325" type="curve"/>
      <point x="528" y="1417"/>
      <point x="465" y="1466"/>
      <point x="375" y="1466" type="curve"/>
      <point x="281" y="1466"/>
      <point x="223" y="1417"/>
      <point x="223" y="1325" type="curve"/>
      <point x="223" y="1239"/>
      <point x="281" y="1190"/>
    </contour>
    <contour>
      <point x="793" y="1190" type="curve"/>
      <point x="885" y="1190"/>
      <point x="946" y="1239"/>
      <point x="946" y="1325" type="curve"/>
      <point x="946" y="1417"/>
      <point x="885" y="1466"/>
      <point x="793" y="1466" type="curve"/>
      <point x="696" y="1466"/>
      <point x="641" y="1417"/>
      <point x="641" y="1325" type="curve"/>
      <point x="641" y="1239"/>
      <point x="696" y="1190"/>
    </contour>
  </outline>
</glyph>
<glyph name="uni1FCE" format="2">
  <advance width="1182"/>
  <unicode hex="1FCE"/>
  <anchor x="563" y="1133" name="_top"/>
  <anchor x="614" y="1593" name="top"/>
  <outline>
    <contour>
      <point x="582" y="1241" type="line"/>
      <point x="754" y="1241" type="line"/>
      <point x="836" y="1327"/>
      <point x="924" y="1444"/>
      <point x="967" y="1536" type="curve"/>
      <point x="967" y="1569" type="line"/>
      <point x="666" y="1569" type="line"/>
      <point x="649" y="1468"/>
      <point x="612" y="1337"/>
      <point x="582" y="1266" type="curve"/>
    </contour>
    <contour>
      <point x="268" y="1221" type="line"/>
      <point x="455" y="1221"/>
      <point x="565" y="1303"/>
      <point x="565" y="1427" type="curve" smooth="yes"/>
      <point x="565" y="1534"/>
      <point x="508" y="1593"/>
      <point x="393" y="1593" type="curve" smooth="yes"/>
      <point x="297" y="1593"/>
      <point x="252" y="1546"/>
      <point x="252" y="1489" type="curve" smooth="yes"/>
      <point x="252" y="1395"/>
      <point x="350" y="1415"/>
      <point x="350" y="1362" type="curve" smooth="yes"/>
      <point x="350" y="1331"/>
      <point x="334" y="1311"/>
      <point x="268" y="1307" type="curve"/>
    </contour>
  </outline>
</glyph>
<glyph name="uni1FEE" format="2">
  <advance width="1229"/>
  <unicode hex="1FEE"/>
  <anchor x="621" y="1133" name="_top"/>
  <outline>
    <contour>
      <point x="473" y="1264" type="line"/>
      <point x="645" y="1264" type="line"/>
      <point x="719" y="1376"/>
      <point x="780" y="1479"/>
      <point x="819" y="1571" type="curve"/>
      <point x="819" y="1591" type="line"/>
      <point x="512" y="1591" type="line"/>
      <point x="510" y="1507"/>
      <point x="487" y="1370"/>
      <point x="473" y="1292" type="curve"/>
    </contour>
    <contour>
      <point x="279" y="1237" type="curve" smooth="yes"/>
      <point x="371" y="1237"/>
      <point x="434" y="1286"/>
      <point x="434" y="1393" type="curve" smooth="yes"/>
      <point x="434" y="1501"/>
      <point x="371" y="1550"/>
      <point x="279" y="1550" type="curve" smooth="yes"/>
      <point x="182" y="1550"/>
      <point x="125" y="1501"/>
      <point x="125" y="1393" type="curve" smooth="yes"/>
      <point x="125" y="1286"/>
      <point x="182" y="1237"/>
    </contour>
    <contour>
      <point x="965" y="1237" type="curve" smooth="yes"/>
      <point x="1059" y="1237"/>
      <point x="1120" y="1286"/>
      <point x="1120" y="1393" type="curve" smooth="yes"/>
      <point x="1120" y="1501"/>
      <point x="1059" y="1550"/>
      <point x="965" y="1550" type="curve" smooth="yes"/>
      <point x="866" y="1550"/>
      <point x="807" y="1501"/>
      <point x="807" y="1393" type="curve" smooth="yes"/>
      <point x="807" y="1286"/>
      <point x="866" y="1237"/>
    </contour>
  </outline>
</glyph>
<glyph name="endash" format="2">
  <advance width="1024"/>
  <unicode hex="2013"/>
  <outline>
    <contour>
      <point x="74" y="414" type="line"/>
      <point x="950" y="414" type="line"/>
      <point x="950" y="690" type="line"/>
      <point x="74" y="690" type="line"/>
    </contour>
  </outline>
</glyph>
<glyph name="quotedblright" format="2">
  <advance width="1022"/>
  <unicode hex="201D"/>
  <outline>
    <contour>
      <point x="987" y="1460" type="line"/>
      <point x="645" y="1460" type="line"/>
      <point x="627" y="1296"/>
      <point x="586" y="1063"/>
      <point x="547" y="877" type="curve"/>
      <point x="825" y="877" type="line"/>
      <point x="893" y="1028"/>
      <point x="965" y="1290"/>
      <point x="1001" y="1438" type="curve"/>
    </contour>
    <contour>
      <point x="477" y="1460" type="line"/>
      <point x="135" y="1460" type="line"/>
      <point x="117" y="1296"/>
      <point x="76" y="1063"/>
      <point x="37" y="877" type="curve"/>
      <point x="315" y="877" type="line"/>
      <point x="383" y="1028"/>
      <point x="455" y="1290"/>
      <point x="492" y="1438" type="curve"/>
    </contour>
  </outline>
</glyph>
<glyph name="interrobang" format="2">
  <advance width="1034"/>
  <unicode hex="203D"/>
  <outline>
    <contour>
      <point x="291" y="516" type="line"/>
      <point x="602" y="516" type="line"/>
      <point x="602" y="567" type="line" smooth="yes"/>
      <point x="602" y="631"/>
      <point x="639" y="664"/>
      <point x="760" y="741" type="curve" smooth="yes"/>
      <point x="930" y="850"/>
      <point x="997" y="961"/>
      <point x="997" y="1118" type="curve" smooth="yes"/>
      <point x="997" y="1337"/>
      <point x="823" y="1483"/>
      <point x="520" y="1483" type="curve" smooth="yes"/>
      <point x="319" y="1483"/>
      <point x="150" y="1427"/>
      <point x="0" y="1341" type="curve"/>
      <point x="127" y="1133" type="line"/>
      <point x="152" y="1147"/>
      <point x="178" y="1161"/>
      <point x="201" y="1171" type="curve"/>
    </contour>
    <contour>
      <point x="461" y="-25" type="curve" smooth="yes"/>
      <point x="573" y="-25"/>
      <point x="668" y="31"/>
      <point x="668" y="166" type="curve" smooth="yes"/>
      <point x="668" y="307"/>
      <point x="573" y="358"/>
      <point x="461" y="358" type="curve" smooth="yes"/>
      <point x="346" y="358"/>
      <point x="250" y="307"/>
      <point x="250" y="166" type="curve" smooth="yes"/>
      <point x="250" y="31"/>
      <point x="346" y="-25"/>
    </contour>
    <contour>
      <point x="524" y="860" type="curve"/>
      <point x="549" y="1247" type="line"/>
      <point x="625" y="1231"/>
      <point x="674" y="1180"/>
      <point x="674" y="1102" type="curve" smooth="yes"/>
      <point x="674" y="1032"/>
      <point x="651" y="993"/>
      <point x="578" y="920" type="curve" smooth="yes"/>
      <point x="553" y="895"/>
      <point x="535" y="877"/>
    </contour>
  </outline>
</glyph>
<glyph name="uni205E" format="2">
  <advance width="590"/>
  <unicode hex="205E"/>
  <outline>
    <contour>
      <point x="299" y="1192" type="curve" smooth="yes"/>
      <point x="410" y="1192"/>
      <point x="504" y="1247"/>
      <point x="504" y="1382" type="curve" smooth="yes"/>
      <point x="504" y="1524"/>
      <point x="410" y="1575"/>
      <point x="299" y="1575" type="curve" smooth="yes"/>
      <point x="182" y="1575"/>
      <point x="86" y="1524"/>
      <point x="86" y="1382" type="curve" smooth="yes"/>
      <point x="86" y="1247"/>
      <point x="182" y="1192"/>
    </contour>
    <contour>
      <point x="299" y="-66" type="curve" smooth="yes"/>
      <point x="410" y="-66"/>
      <point x="504" y="-10"/>
      <point x="504" y="125" type="curve" smooth="yes"/>
      <point x="504" y="266"/>
      <point x="410" y="317"/>
      <point x="299" y="317" type="curve" smooth="yes"/>
      <point x="182" y="317"/>
      <point x="86" y="266"/>
      <point x="86" y="125" type="curve" smooth="yes"/>
      <point x="86" y="-10"/>
      <point x="182" y="-66"/>
    </contour>
    <contour>
      <point x="299" y="350" type="curve" smooth="yes"/>
      <point x="410" y="350"/>
      <point x="504" y="406"/>
      <point x="504" y="541" type="curve" smooth="yes"/>
      <point x="504" y="682"/>
      <point x="410" y="733"/>
      <point x="299" y="733" type="curve" smooth="yes"/>
      <point x="182" y="733"/>
      <point x="86" y="682"/>
      <point x="86" y="541" type="curve" smooth="yes"/>
      <point x="86" y="406"/>
      <point x="182" y="350"/>
    </contour>
    <contour>
      <point x="299" y="772" type="curve" smooth="yes"/>
      <point x="410" y="772"/>
      <point x="504" y="827"/>
      <point x="504" y="963" type="curve" smooth="yes"/>
      <point x="504" y="1104"/>
      <point x="410" y="1155"/>
      <point x="299" y="1155" type="curve" smooth="yes"/>
      <point x="182" y="1155"/>
      <point x="86" y="1104"/>
      <point x="86" y="963" type="curve" smooth="yes"/>
      <point x="86" y="827"/>
      <point x="182" y="772"/>
    </contour>
  </outline>
</glyph>
<glyph name="zerosuperior" format="2">
  <advance width="817"/>
  <unicode hex="2070"/>
  <outline>
    <contour>
      <point x="401" y="829" type="curve" smooth="yes"/>
      <point x="659" y="829"/>
      <point x="776" y="1004"/>
      <point x="776" y="1292" type="curve" smooth="yes"/>
      <point x="776" y="1579"/>
      <point x="645" y="1751"/>
      <point x="401" y="1751" type="curve" smooth="yes"/>
      <point x="152" y="1751"/>
      <point x="41" y="1581"/>
      <point x="41" y="1292" type="curve" smooth="yes"/>
      <point x="41" y="1008"/>
      <point x="168" y="829"/>
    </contour>
    <contour>
      <point x="408" y="1044" type="curve" smooth="yes"/>
      <point x="354" y="1044"/>
      <point x="328" y="1100"/>
      <point x="328" y="1290" type="curve" smooth="yes"/>
      <point x="328" y="1479"/>
      <point x="354" y="1532"/>
      <point x="408" y="1532" type="curve" smooth="yes"/>
      <point x="459" y="1532"/>
      <point x="489" y="1479"/>
      <point x="489" y="1288" type="curve" smooth="yes"/>
      <point x="489" y="1098"/>
      <point x="459" y="1044"/>
    </contour>
  </outline>
</glyph>
<glyph name="fivesuperior" format="2">
  <advance width="817"/>
  <unicode hex="2075"/>
  <outline>
    <contour>
      <point x="682" y="1737" type="line"/>
      <point x="147" y="1737" type="line"/>
      <point x="109" y="1280" type="line"/>
      <point x="248" y="1237" type="line"/>
      <point x="274" y="1249"/>
      <point x="332" y="1251"/>
      <point x="338" y="1251" type="curve" smooth="yes"/>
      <point x="430" y="1251"/>
      <point x="479" y="1219"/>
      <point x="479" y="1149" type="curve" smooth="yes"/>
      <point x="479" y="1069"/>
      <point x="418" y="1042"/>
      <point x="328" y="1042" type="curve" smooth="yes"/>
      <point x="256" y="1042"/>
      <point x="158" y="1075"/>
      <point x="96" y="1118" type="curve"/>
      <point x="96" y="887" type="line"/>
      <point x="166" y="852"/>
      <point x="260" y="838"/>
      <point x="358" y="838" type="curve" smooth="yes"/>
      <point x="612" y="838"/>
      <point x="754" y="952"/>
      <point x="754" y="1149" type="curve" smooth="yes"/>
      <point x="754" y="1333"/>
      <point x="614" y="1432"/>
      <point x="438" y="1432" type="curve" smooth="yes"/>
      <point x="391" y="1432"/>
      <point x="352" y="1425"/>
      <point x="328" y="1423" type="curve"/>
      <point x="342" y="1522" type="line"/>
      <point x="682" y="1522" type="line"/>
    </contour>
  </outline>
</glyph>
<glyph name="uni20A9" format="2">
  <advance width="1599"/>
  <unicode hex="20A9"/>
  <outline>
    <contour>
      <point x="272" y="0" type="line"/>
      <point x="635" y="0" type="line"/>
      <point x="719" y="496" type="line"/>
      <point x="874" y="496" type="line"/>
      <point x="956" y="0" type="line"/>
      <point x="1313" y="0" type="line"/>
      <point x="1397" y="496" type="line"/>
      <point x="1579" y="496" type="line"/>
      <point x="1579" y="662" type="line"/>
      <point x="1421" y="662" type="line"/>
      <point x="1446" y="795" type="line"/>
      <point x="1579" y="795" type="line"/>
      <point x="1579" y="961" type="line"/>
      <point x="1470" y="961" type="line"/>
      <point x="1554" y="1462" type="line"/>
      <point x="1260" y="1462" type="line"/>
      <point x="1200" y="961" type="line"/>
      <point x="1030" y="961" type="line"/>
      <point x="956" y="1462" type="line"/>
      <point x="641" y="1462" type="line"/>
      <point x="561" y="961" type="line"/>
      <point x="393" y="961" type="line"/>
      <point x="336" y="1462" type="line"/>
      <point x="41" y="1462" type="line"/>
      <point x="121" y="961" type="line"/>
      <point x="20" y="961" type="line"/>
      <point x="20" y="795" type="line"/>
      <point x="147" y="795" type="line"/>
      <point x="170" y="662" type="line"/>
      <point x="20" y="662" type="line"/>
      <point x="20" y="496" type="line"/>
      <point x="195" y="496" type="line"/>
    </contour>
    <contour>
      <point x="467" y="311" type="line"/>
      <point x="444" y="496" type="line"/>
      <point x="492" y="496" type="line"/>
    </contour>
    <contour>
      <point x="1120" y="317" type="line"/>
      <point x="1098" y="496" type="line"/>
      <point x="1141" y="496" type="line"/>
    </contour>
    <contour>
      <point x="772" y="961" type="line"/>
      <point x="795" y="1141" type="line"/>
      <point x="815" y="961" type="line"/>
    </contour>
    <contour>
      <point x="428" y="662" type="line"/>
      <point x="416" y="795" type="line"/>
      <point x="532" y="795" type="line"/>
      <point x="512" y="662" type="line"/>
    </contour>
    <contour>
      <point x="743" y="662" type="line"/>
      <point x="760" y="795" type="line"/>
      <point x="825" y="795" type="line"/>
      <point x="844" y="662" type="line"/>
    </contour>
    <contour>
      <point x="1077" y="662" type="line"/>
      <point x="1057" y="795" type="line"/>
      <point x="1176" y="795" type="line"/>
      <point x="1159" y="662" type="line"/>
    </contour>
  </outline>
</glyph>
<glyph name="uni20B1" format="2">
  <advance width="1171"/>
  <unicode hex="20B1"/>
  <outline>
    <contour>
      <point x="586" y="1462" type="curve"/>
      <point x="96" y="1462" type="line"/>
      <point x="96" y="1122" type="line"/>
      <point x="8" y="1122" type="line"/>
      <point x="8" y="961" type="line"/>
      <point x="96" y="961" type="line"/>
      <point x="96" y="854" type="line"/>
      <point x="8" y="854" type="line"/>
      <point x="8" y="692" type="line"/>
      <point x="96" y="692" type="line"/>
      <point x="96" y="0" type="line"/>
      <point x="479" y="0" type="line"/>
      <point x="479" y="336" type="line"/>
      <point x="528" y="336" type="line" smooth="yes"/>
      <point x="860" y="336"/>
      <point x="995" y="471"/>
      <point x="1059" y="692" type="curve"/>
      <point x="1163" y="692" type="line"/>
      <point x="1163" y="854" type="line"/>
      <point x="1090" y="854" type="line"/>
      <point x="1090" y="868"/>
      <point x="1090" y="889"/>
      <point x="1090" y="907" type="curve" smooth="yes"/>
      <point x="1090" y="922"/>
      <point x="1090" y="946"/>
      <point x="1090" y="961" type="curve"/>
      <point x="1163" y="961" type="line"/>
      <point x="1163" y="1122" type="line"/>
      <point x="1071" y="1122" type="line"/>
      <point x="1026" y="1350"/>
      <point x="864" y="1462"/>
    </contour>
    <contour>
      <point x="686" y="692" type="line"/>
      <point x="659" y="623"/>
      <point x="594" y="604"/>
      <point x="522" y="604" type="curve"/>
      <point x="479" y="604" type="line"/>
      <point x="479" y="692" type="line"/>
    </contour>
    <contour>
      <point x="715" y="961" type="line"/>
      <point x="715" y="950"/>
      <point x="717" y="934"/>
      <point x="717" y="911" type="curve" smooth="yes"/>
      <point x="717" y="887"/>
      <point x="715" y="864"/>
      <point x="715" y="854" type="curve"/>
      <point x="479" y="854" type="line"/>
      <point x="479" y="961" type="line"/>
    </contour>
    <contour>
      <point x="543" y="1192" type="line" smooth="yes"/>
      <point x="618" y="1192"/>
      <point x="668" y="1163"/>
      <point x="686" y="1122" type="curve"/>
      <point x="479" y="1122" type="line"/>
      <point x="479" y="1192" type="line"/>
    </contour>
  </outline>
</glyph>
<glyph name="uni20B5" format="2">
  <advance width="1311"/>
  <unicode hex="20B5"/>
  <outline>
    <contour>
      <point x="911" y="1559" type="line"/>
      <point x="702" y="1559" type="line"/>
      <point x="702" y="1481" type="line"/>
      <point x="324" y="1438"/>
      <point x="115" y="1139"/>
      <point x="115" y="727" type="curve"/>
      <point x="115" y="301"/>
      <point x="291" y="8"/>
      <point x="702" y="-18" type="curve"/>
      <point x="702" y="-164" type="line"/>
      <point x="911" y="-164" type="line"/>
      <point x="911" y="-12" type="line"/>
      <point x="995" y="0"/>
      <point x="1083" y="25"/>
      <point x="1180" y="66" type="curve"/>
      <point x="1180" y="391" type="line"/>
      <point x="1071" y="350"/>
      <point x="985" y="322"/>
      <point x="911" y="307" type="curve"/>
      <point x="911" y="1147" type="line"/>
      <point x="969" y="1126"/>
      <point x="1038" y="1092"/>
      <point x="1116" y="1055" type="curve"/>
      <point x="1235" y="1370" type="line"/>
      <point x="1124" y="1421"/>
      <point x="1016" y="1460"/>
      <point x="911" y="1477" type="curve"/>
    </contour>
    <contour>
      <point x="702" y="1149" type="curve"/>
      <point x="702" y="309" type="line"/>
      <point x="565" y="350"/>
      <point x="516" y="489"/>
      <point x="516" y="725" type="curve"/>
      <point x="516" y="950"/>
      <point x="573" y="1104"/>
    </contour>
  </outline>
</glyph>
<glyph name="planckconstant" format="2">
  <advance width="1372"/>
  <unicode hex="210E"/>
  <outline>
    <contour>
      <point x="61" y="0" type="line"/>
      <point x="453" y="0" type="line"/>
      <point x="530" y="498" type="line" smooth="yes"/>
      <point x="567" y="721"/>
      <point x="631" y="846"/>
      <point x="772" y="846" type="curve" smooth="yes"/>
      <point x="840" y="846"/>
      <point x="883" y="803"/>
      <point x="883" y="729" type="curve" smooth="yes"/>
      <point x="883" y="694"/>
      <point x="877" y="649"/>
      <point x="872" y="618" type="curve" smooth="yes"/>
      <point x="774" y="0" type="line"/>
      <point x="1167" y="0" type="line"/>
      <point x="1284" y="737" type="line" smooth="yes"/>
      <point x="1290" y="772"/>
      <point x="1292" y="803"/>
      <point x="1292" y="831" type="curve" smooth="yes"/>
      <point x="1292" y="1057"/>
      <point x="1137" y="1153"/>
      <point x="950" y="1153" type="curve" smooth="yes"/>
      <point x="793" y="1153"/>
      <point x="684" y="1090"/>
      <point x="614" y="1006" type="curve"/>
      <point x="596" y="1006" type="line"/>
      <point x="608" y="1047"/>
      <point x="635" y="1155"/>
      <point x="664" y="1335" type="curve" smooth="yes"/>
      <point x="698" y="1556" type="line"/>
      <point x="307" y="1556" type="line"/>
    </contour>
  </outline>
</glyph>
<glyph name="partialdiff" format="2">
  <advance width="1221"/>
  <unicode hex="2202"/>
  <outline>
    <contour>
      <point x="674" y="1483" type="curve" smooth="yes"/>
      <point x="561" y="1483"/>
      <point x="399" y="1462"/>
      <point x="309" y="1413" type="curve"/>
      <point x="309" y="1110" type="line"/>
      <point x="403" y="1174"/>
      <point x="522" y="1192"/>
      <point x="602" y="1192" type="curve" smooth="yes"/>
      <point x="723" y="1192"/>
      <point x="791" y="1112"/>
      <point x="791" y="1014" type="curve" smooth="yes"/>
      <point x="791" y="1010"/>
      <point x="791" y="1006"/>
      <point x="791" y="999" type="curve"/>
      <point x="731" y="1024"/>
      <point x="664" y="1036"/>
      <point x="592" y="1036" type="curve" smooth="yes"/>
      <point x="238" y="1036"/>
      <point x="51" y="723"/>
      <point x="51" y="410" type="curve" smooth="yes"/>
      <point x="51" y="166"/>
      <point x="170" y="-20"/>
      <point x="496" y="-20" type="curve" smooth="yes"/>
      <point x="967" y="-20"/>
      <point x="1169" y="487"/>
      <point x="1169" y="911" type="curve" smooth="yes"/>
      <point x="1169" y="1204"/>
      <point x="1051" y="1483"/>
    </contour>
    <contour>
      <point x="645" y="754" type="curve" smooth="yes"/>
      <point x="684" y="754"/>
      <point x="741" y="737"/>
      <point x="760" y="709" type="curve"/>
      <point x="713" y="428"/>
      <point x="625" y="270"/>
      <point x="524" y="270" type="curve" smooth="yes"/>
      <point x="481" y="270"/>
      <point x="444" y="293"/>
      <point x="444" y="389" type="curve" smooth="yes"/>
      <point x="444" y="584"/>
      <point x="545" y="754"/>
    </contour>
  </outline>
</glyph>
<glyph name="product" format="2">
  <advance width="1491"/>
  <unicode hex="220F"/>
  <outline>
    <contour>
      <point x="143" y="-432" type="line"/>
      <point x="541" y="-432" type="line"/>
      <point x="541" y="1139" type="line"/>
      <point x="950" y="1139" type="line"/>
      <point x="950" y="-432" type="line"/>
      <point x="1348" y="-432" type="line"/>
      <point x="1348" y="1462" type="line"/>
      <point x="143" y="1462" type="line"/>
    </contour>
  </outline>
</glyph>
<glyph name="notequal" format="2">
  <advance width="1159"/>
  <unicode hex="2260"/>
  <outline>
    <contour>
      <point x="707" y="1319" type="line"/>
      <point x="598" y="1083" type="line"/>
      <point x="72" y="1083" type="line"/>
      <point x="72" y="815" type="line"/>
      <point x="473" y="815" type="line"/>
      <point x="387" y="629" type="line"/>
      <point x="72" y="629" type="line"/>
      <point x="72" y="358" type="line"/>
      <point x="262" y="358" type="line"/>
      <point x="203" y="231" type="line"/>
      <point x="451" y="129" type="line"/>
      <point x="557" y="358" type="line"/>
      <point x="1087" y="358" type="line"/>
      <point x="1087" y="629" type="line"/>
      <point x="682" y="629" type="line"/>
      <point x="768" y="815" type="line"/>
      <point x="1087" y="815" type="line"/>
      <point x="1087" y="1083" type="line"/>
      <point x="891" y="1083" type="line"/>
      <point x="954" y="1214" type="line"/>
    </contour>
  </outline>
</glyph>
<glyph name="uni2E17" format="2">
  <advance width="698"/>
  <unicode hex="2E17"/>
  <outline>
    <contour>
      <point x="119" y="510" type="line"/>
      <point x="666" y="897" type="line"/>
      <point x="580" y="1022" type="line"/>
      <point x="33" y="635" type="line"/>
    </contour>
    <contour>
      <point x="119" y="137" type="line"/>
      <point x="666" y="524" type="line"/>
      <point x="580" y="651" type="line"/>
      <point x="33" y="262" type="line"/>
    </contour>
  </outline>
</glyph>
<glyph name="uni2E44" format="2">
  <advance width="856"/>
  <unicode hex="2E44"/>
  <outline>
    <contour>
      <point x="281" y="971" type="line"/>
      <point x="788" y="1354" type="line"/>
      <point x="559" y="1581" type="line"/>
      <point x="113" y="1147" type="line"/>
    </contour>
    <contour>
      <point x="281" y="-129" type="line"/>
      <point x="788" y="254" type="line"/>
      <point x="559" y="481" type="line"/>
      <point x="113" y="47" type="line"/>
    </contour>
  </outline>
</glyph>
<glyph name="uniA64E" format="2">
  <advance width="1546"/>
  <unicode hex="A64E"/>
  <outline>
    <contour>
      <point x="383" y="1112" type="curve" smooth="yes"/>
      <point x="383" y="0" type="line"/>
      <point x="815" y="0" type="line" smooth="yes"/>
      <point x="1282" y="0"/>
      <point x="1473" y="174"/>
      <point x="1473" y="473" type="curve" smooth="yes"/>
      <point x="1473" y="754"/>
      <point x="1305" y="936"/>
      <point x="834" y="936" type="curve" smooth="yes"/>
      <point x="780" y="936" type="line"/>
      <point x="780" y="1085" type="line" smooth="yes"/>
      <point x="780" y="1376"/>
      <point x="647" y="1485"/>
      <point x="365" y="1485" type="curve" smooth="yes"/>
      <point x="207" y="1485"/>
      <point x="115" y="1456"/>
      <point x="51" y="1430" type="curve"/>
      <point x="125" y="1171" type="line"/>
      <point x="166" y="1186"/>
      <point x="213" y="1204"/>
      <point x="281" y="1204" type="curve" smooth="yes"/>
      <point x="342" y="1204"/>
      <point x="383" y="1174"/>
    </contour>
    <contour>
      <point x="780" y="324" type="line"/>
      <point x="780" y="612" type="line"/>
      <point x="797" y="612" type="line" smooth="yes"/>
      <point x="973" y="612"/>
      <point x="1071" y="592"/>
      <point x="1071" y="473" type="curve" smooth="yes"/>
      <point x="1071" y="356"/>
      <point x="989" y="324"/>
      <point x="805" y="324" type="curve" smooth="yes"/>
    </contour>
  </outline>
</glyph>
<glyph name="uniA669" format="2">
  <advance width="1397"/>
  <unicode hex="A669"/>
  <outline>
    <contour>
      <point x="694" y="-18" type="curve" smooth="yes"/>
      <point x="1075" y="-18"/>
      <point x="1311" y="193"/>
      <point x="1311" y="569" type="curve" smooth="yes"/>
      <point x="1311" y="942"/>
      <point x="1053" y="1151"/>
      <point x="702" y="1151" type="curve" smooth="yes"/>
      <point x="319" y="1151"/>
      <point x="86" y="942"/>
      <point x="86" y="569" type="curve" smooth="yes"/>
      <point x="86" y="193"/>
      <point x="340" y="-18"/>
    </contour>
    <contour>
      <point x="700" y="270" type="curve" smooth="yes"/>
      <point x="532" y="270"/>
      <point x="422" y="373"/>
      <point x="422" y="569" type="curve" smooth="yes"/>
      <point x="422" y="764"/>
      <point x="535" y="862"/>
      <point x="696" y="862" type="curve" smooth="yes"/>
      <point x="864" y="862"/>
      <point x="975" y="764"/>
      <point x="975" y="569" type="curve" smooth="yes"/>
      <point x="975" y="373"/>
      <point x="864" y="270"/>
    </contour>
    <contour>
      <point x="700" y="381" type="curve" smooth="yes"/>
      <point x="795" y="381"/>
      <point x="877" y="438"/>
      <point x="877" y="567" type="curve" smooth="yes"/>
      <point x="877" y="705"/>
      <point x="795" y="756"/>
      <point x="700" y="756" type="curve" smooth="yes"/>
      <point x="602" y="756"/>
      <point x="520" y="702"/>
      <point x="520" y="567" type="curve" smooth="yes"/>
      <point x="520" y="436"/>
      <point x="602" y="381"/>
    </contour>
  </outline>
</glyph>
<glyph name="uniA66B" format="2">
  <advance width="1432"/>
  <unicode hex="A66B"/>
  <outline>
    <contour>
      <point x="428" y="569" type="curve"/>
      <point x="428" y="479"/>
      <point x="485" y="436"/>
      <point x="559" y="436" type="curve" smooth="yes"/>
      <point x="629" y="436"/>
      <point x="690" y="479"/>
      <point x="690" y="569" type="curve" smooth="yes"/>
      <point x="690" y="664"/>
      <point x="629" y="705"/>
      <point x="559" y="705" type="curve" smooth="yes"/>
      <point x="485" y="705"/>
      <point x="428" y="664"/>
    </contour>
    <contour>
      <point x="741" y="569" type="curve"/>
      <point x="741" y="479"/>
      <point x="799" y="436"/>
      <point x="872" y="436" type="curve" smooth="yes"/>
      <point x="944" y="436"/>
      <point x="1006" y="479"/>
      <point x="1006" y="569" type="curve" smooth="yes"/>
      <point x="1006" y="664"/>
      <point x="944" y="705"/>
      <point x="872" y="705" type="curve" smooth="yes"/>
      <point x="799" y="705"/>
      <point x="741" y="664"/>
    </contour>
    <contour>
      <point x="1346" y="569" type="curve" smooth="yes"/>
      <point x="1346" y="944"/>
      <point x="1083" y="1153"/>
      <point x="721" y="1153" type="curve" smooth="yes"/>
      <point x="326" y="1153"/>
      <point x="86" y="944"/>
      <point x="86" y="569" type="curve" smooth="yes"/>
      <point x="86" y="190"/>
      <point x="348" y="-20"/>
      <point x="713" y="-20" type="curve" smooth="yes"/>
      <point x="1106" y="-20"/>
      <point x="1346" y="190"/>
    </contour>
    <contour>
      <point x="373" y="561" type="curve"/>
      <point x="373" y="782"/>
      <point x="473" y="893"/>
      <point x="715" y="893" type="curve" smooth="yes"/>
      <point x="958" y="893"/>
      <point x="1059" y="782"/>
      <point x="1059" y="561" type="curve" smooth="yes"/>
      <point x="1059" y="340"/>
      <point x="958" y="225"/>
      <point x="717" y="225" type="curve" smooth="yes"/>
      <point x="473" y="225"/>
      <point x="373" y="340"/>
    </contour>
  </outline>
</glyph>
<glyph name="uniA689" format="2">
  <advance width="1995"/>
  <unicode hex="A689"/>
  <outline>
    <contour>
      <point x="1290" y="1133" type="line"/>
      <point x="354" y="1133" type="line"/>
      <point x="326" y="807"/>
      <point x="242" y="492"/>
      <point x="125" y="291" type="curve"/>
      <point x="25" y="291" type="line"/>
      <point x="25" y="-416" type="line"/>
      <point x="367" y="-416" type="line"/>
      <point x="367" y="0" type="line"/>
      <point x="1458" y="0" type="line"/>
      <point x="1458" y="291" type="line"/>
      <point x="1290" y="291" type="line"/>
    </contour>
    <contour>
      <point x="899" y="842" type="line"/>
      <point x="899" y="291" type="line"/>
      <point x="537" y="291" type="line"/>
      <point x="610" y="485"/>
      <point x="649" y="647"/>
      <point x="676" y="842" type="curve"/>
    </contour>
    <contour>
      <point x="1673" y="319" type="curve" smooth="yes"/>
      <point x="1559" y="319"/>
      <point x="1473" y="301"/>
      <point x="1378" y="264" type="curve"/>
      <point x="1450" y="94" type="line"/>
      <point x="1524" y="125"/>
      <point x="1587" y="141"/>
      <point x="1663" y="141" type="curve" smooth="yes"/>
      <point x="1733" y="141"/>
      <point x="1759" y="123"/>
      <point x="1759" y="92" type="curve" smooth="yes"/>
      <point x="1759" y="55"/>
      <point x="1722" y="39"/>
      <point x="1620" y="39" type="curve" smooth="yes"/>
      <point x="1520" y="39" type="line"/>
      <point x="1520" y="-123" type="line"/>
      <point x="1634" y="-123" type="line" smooth="yes"/>
      <point x="1755" y="-123"/>
      <point x="1776" y="-145"/>
      <point x="1776" y="-184" type="curve" smooth="yes"/>
      <point x="1776" y="-207"/>
      <point x="1759" y="-246"/>
      <point x="1649" y="-246" type="curve" smooth="yes"/>
      <point x="1534" y="-246"/>
      <point x="1432" y="-217"/>
      <point x="1366" y="-188" type="curve"/>
      <point x="1366" y="-381" type="line"/>
      <point x="1448" y="-412"/>
      <point x="1522" y="-432"/>
      <point x="1663" y="-432" type="curve" smooth="yes"/>
      <point x="1929" y="-432"/>
      <point x="2046" y="-352"/>
      <point x="2046" y="-213" type="curve" smooth="yes"/>
      <point x="2046" y="-129"/>
      <point x="2001" y="-57"/>
      <point x="1884" y="-43" type="curve"/>
      <point x="1884" y="-37" type="line"/>
      <point x="1964" y="-14"/>
      <point x="2015" y="43"/>
      <point x="2015" y="123" type="curve" smooth="yes"/>
      <point x="2015" y="266"/>
      <point x="1866" y="319"/>
    </contour>
  </outline>
</glyph>
<glyph name="uniA693" format="2">
  <advance width="1790"/>
  <unicode hex="A693"/>
  <outline>
    <contour>
      <point x="1104" y="842" type="line"/>
      <point x="1104" y="1133" type="line"/>
      <point x="49" y="1133" type="line"/>
      <point x="49" y="842" type="line"/>
    </contour>
    <contour>
      <point x="770" y="1133" type="line"/>
      <point x="379" y="1133" type="line"/>
      <point x="379" y="715" type="line" smooth="yes"/>
      <point x="379" y="451"/>
      <point x="526" y="328"/>
      <point x="844" y="328" type="curve" smooth="yes"/>
      <point x="1016" y="328"/>
      <point x="1165" y="377"/>
      <point x="1264" y="412" type="curve"/>
      <point x="1264" y="0" type="line"/>
      <point x="1655" y="0" type="line"/>
      <point x="1655" y="1133" type="line"/>
      <point x="1264" y="1133" type="line"/>
      <point x="1264" y="668" type="line"/>
      <point x="1147" y="637"/>
      <point x="1036" y="618"/>
      <point x="938" y="618" type="curve" smooth="yes"/>
      <point x="819" y="618"/>
      <point x="770" y="659"/>
      <point x="770" y="735" type="curve" smooth="yes"/>
    </contour>
  </outline>
</glyph>
<glyph name="uniA697" format="2">
  <advance width="2056"/>
  <unicode hex="A697"/>
  <outline>
    <contour>
      <point x="778" y="-492" type="curve" smooth="yes"/>
      <point x="1583" y="-489" type="line" smooth="yes"/>
      <point x="1948" y="-489"/>
      <point x="2058" y="-303"/>
      <point x="2058" y="-68" type="curve" smooth="yes"/>
      <point x="2058" y="53"/>
      <point x="2013" y="154"/>
      <point x="1921" y="221" type="curve"/>
      <point x="1921" y="1133" type="line"/>
      <point x="1530" y="1133" type="line"/>
      <point x="1530" y="291" type="line"/>
      <point x="1221" y="291" type="line"/>
      <point x="1221" y="1133" type="line"/>
      <point x="840" y="1133" type="line"/>
      <point x="840" y="291" type="line"/>
      <point x="526" y="291" type="line"/>
      <point x="526" y="1133" type="line"/>
      <point x="135" y="1133" type="line"/>
      <point x="135" y="0" type="line"/>
      <point x="1573" y="0" type="line" smooth="yes"/>
      <point x="1690" y="0"/>
      <point x="1747" y="-68"/>
      <point x="1749" y="-158" type="curve"/>
      <point x="1747" y="-293"/>
      <point x="1638" y="-332"/>
      <point x="1495" y="-332" type="curve" smooth="yes"/>
      <point x="831" y="-332" type="line" smooth="yes"/>
      <point x="780" y="-332"/>
      <point x="754" y="-317"/>
      <point x="754" y="-285" type="curve" smooth="yes"/>
      <point x="754" y="-256"/>
      <point x="768" y="-233"/>
      <point x="821" y="-233" type="curve" smooth="yes"/>
      <point x="1436" y="-233" type="line"/>
      <point x="1436" y="-96" type="line"/>
      <point x="737" y="-96" type="line" smooth="yes"/>
      <point x="614" y="-96"/>
      <point x="537" y="-172"/>
      <point x="537" y="-291" type="curve" smooth="yes"/>
      <point x="537" y="-426"/>
      <point x="621" y="-492"/>
    </contour>
  </outline>
</glyph>
<glyph name="uniA700" format="2">
  <advance width="709"/>
  <unicode hex="A700"/>
  <outline>
    <contour>
      <point x="369" y="-201" type="curve" smooth="yes"/>
      <point x="627" y="-201" type="line"/>
      <point x="627" y="-92" type="line"/>
      <point x="369" y="-92" type="line" smooth="yes"/>
      <point x="246" y="-92"/>
      <point x="190" y="-41"/>
      <point x="190" y="72" type="curve" smooth="yes"/>
      <point x="190" y="182"/>
      <point x="246" y="233"/>
      <point x="369" y="233" type="curve" smooth="yes"/>
      <point x="627" y="233" type="line"/>
      <point x="627" y="342" type="line"/>
      <point x="369" y="342" type="line" smooth="yes"/>
      <point x="184" y="342"/>
      <point x="82" y="248"/>
      <point x="82" y="72" type="curve" smooth="yes"/>
      <point x="82" y="-96"/>
      <point x="178" y="-201"/>
    </contour>
  </outline>
</glyph>
<glyph name="uniA736" format="2">
  <advance width="2322"/>
  <unicode hex="A736"/>
  <outline>
    <contour>
      <point x="1538" y="-20" type="curve" smooth="yes"/>
      <point x="1980" y="-20"/>
      <point x="2173" y="213"/>
      <point x="2173" y="582" type="curve" smooth="yes"/>
      <point x="2173" y="1462" type="line"/>
      <point x="1778" y="1462" type="line"/>
      <point x="1778" y="606" type="line" smooth="yes"/>
      <point x="1778" y="397"/>
      <point x="1716" y="309"/>
      <point x="1548" y="309" type="curve" smooth="yes"/>
      <point x="1432" y="309"/>
      <point x="1372" y="350"/>
      <point x="1339" y="446" type="curve" smooth="yes"/>
      <point x="1004" y="1468" type="line"/>
      <point x="477" y="1468" type="line"/>
      <point x="0" y="0" type="line"/>
      <point x="434" y="0" type="line"/>
      <point x="508" y="274" type="line"/>
      <point x="981" y="274" type="line"/>
      <point x="989" y="256" type="line" smooth="yes"/>
      <point x="1067" y="80"/>
      <point x="1235" y="-20"/>
    </contour>
    <contour>
      <point x="590" y="598" type="line"/>
      <point x="653" y="838" type="line" smooth="yes"/>
      <point x="678" y="934"/>
      <point x="725" y="1126"/>
      <point x="743" y="1227" type="curve"/>
      <point x="762" y="1126"/>
      <point x="817" y="915"/>
      <point x="838" y="838" type="curve" smooth="yes"/>
      <point x="901" y="598" type="line"/>
    </contour>
  </outline>
</glyph>
<glyph name="uniA737" format="2">
  <advance width="1995"/>
  <unicode hex="A737"/>
  <outline>
    <contour>
      <point x="1860" y="1133" type="line"/>
      <point x="1468" y="1133" type="line"/>
      <point x="1468" y="637" type="line" smooth="yes"/>
      <point x="1468" y="412"/>
      <point x="1430" y="289"/>
      <point x="1282" y="289" type="curve" smooth="yes"/>
      <point x="1186" y="289"/>
      <point x="1145" y="367"/>
      <point x="1145" y="514" type="curve"/>
      <point x="1145" y="614" type="line"/>
      <point x="756" y="614" type="line"/>
      <point x="756" y="395" type="line"/>
      <point x="756" y="104"/>
      <point x="928" y="-20"/>
      <point x="1151" y="-20" type="curve" smooth="yes"/>
      <point x="1290" y="-20"/>
      <point x="1421" y="27"/>
      <point x="1493" y="141" type="curve"/>
      <point x="1516" y="141" type="line"/>
      <point x="1565" y="0" type="line"/>
      <point x="1860" y="0" type="line"/>
    </contour>
    <contour>
      <point x="688" y="1153" type="curve" smooth="yes"/>
      <point x="483" y="1153"/>
      <point x="319" y="1118"/>
      <point x="188" y="1051" type="curve"/>
      <point x="301" y="793" type="line"/>
      <point x="412" y="842"/>
      <point x="526" y="877"/>
      <point x="616" y="877" type="curve" smooth="yes"/>
      <point x="700" y="877"/>
      <point x="754" y="838"/>
      <point x="754" y="737" type="curve" smooth="yes"/>
      <point x="754" y="721" type="line"/>
      <point x="565" y="715" type="line" smooth="yes"/>
      <point x="246" y="700"/>
      <point x="74" y="588"/>
      <point x="74" y="346" type="curve" smooth="yes"/>
      <point x="74" y="98"/>
      <point x="221" y="-20"/>
      <point x="449" y="-20" type="curve" smooth="yes"/>
      <point x="641" y="-20"/>
      <point x="745" y="39"/>
      <point x="860" y="182" type="curve"/>
      <point x="1147" y="182" type="line"/>
      <point x="1145" y="743" type="line"/>
      <point x="1145" y="1006"/>
      <point x="975" y="1153"/>
    </contour>
    <contour>
      <point x="756" y="506" type="line"/>
      <point x="756" y="418" type="line"/>
      <point x="756" y="322"/>
      <point x="678" y="256"/>
      <point x="584" y="256" type="curve" smooth="yes"/>
      <point x="516" y="256"/>
      <point x="473" y="283"/>
      <point x="473" y="360" type="curve" smooth="yes"/>
      <point x="473" y="442"/>
      <point x="522" y="496"/>
      <point x="666" y="502" type="curve" smooth="yes"/>
    </contour>
  </outline>
</glyph>
<glyph name="uniA740" format="2">
  <advance width="1407"/>
  <unicode hex="A740"/>
  <anchor x="737" y="0" name="bottom"/>
  <anchor x="745" y="1462" name="top"/>
  <outline>
    <contour>
      <point x="14" y="1063" type="line"/>
      <point x="678" y="1063" type="line"/>
      <point x="678" y="1319" type="line"/>
      <point x="14" y="1319" type="line"/>
    </contour>
    <component base="K"/>
  </outline>
</glyph>
<glyph name="uniA755" format="2">
  <advance width="1931"/>
  <unicode hex="A755"/>
  <outline>
    <contour>
      <point x="524" y="37" type="curve" smooth="yes"/>
      <point x="676" y="-6"/>
      <point x="791" y="-20"/>
      <point x="1061" y="-20" type="curve" smooth="yes"/>
      <point x="1569" y="-20"/>
      <point x="1843" y="162"/>
      <point x="1843" y="625" type="curve" smooth="yes"/>
      <point x="1843" y="952"/>
      <point x="1679" y="1153"/>
      <point x="1434" y="1151" type="curve" smooth="yes"/>
      <point x="1274" y="1149"/>
      <point x="1188" y="1069"/>
      <point x="1137" y="991" type="curve"/>
      <point x="1118" y="991" type="line"/>
      <point x="1065" y="1133" type="line"/>
      <point x="748" y="1133" type="line"/>
      <point x="748" y="-492" type="line"/>
      <point x="1139" y="-492" type="line"/>
      <point x="1139" y="588" type="line"/>
      <point x="1139" y="768"/>
      <point x="1182" y="842"/>
      <point x="1294" y="842" type="curve" smooth="yes"/>
      <point x="1407" y="842"/>
      <point x="1444" y="754"/>
      <point x="1444" y="612" type="curve" smooth="yes"/>
      <point x="1444" y="338"/>
      <point x="1282" y="283"/>
      <point x="1077" y="283" type="curve" smooth="yes"/>
      <point x="899" y="283"/>
      <point x="778" y="289"/>
      <point x="668" y="330" type="curve" smooth="yes"/>
      <point x="571" y="365"/>
      <point x="520" y="422"/>
      <point x="520" y="629" type="curve" smooth="yes"/>
      <point x="520" y="760" type="line" smooth="yes"/>
      <point x="520" y="1047"/>
      <point x="422" y="1155"/>
      <point x="156" y="1155" type="curve" smooth="yes"/>
      <point x="68" y="1155"/>
      <point x="-6" y="1133"/>
      <point x="-31" y="1122" type="curve"/>
      <point x="-31" y="825" type="line"/>
      <point x="-18" y="831"/>
      <point x="16" y="846"/>
      <point x="66" y="846" type="curve" smooth="yes"/>
      <point x="111" y="846"/>
      <point x="127" y="813"/>
      <point x="127" y="752" type="curve" smooth="yes"/>
      <point x="127" y="567" type="line" smooth="yes"/>
      <point x="127" y="272"/>
      <point x="238" y="119"/>
    </contour>
  </outline>
</glyph>
<glyph name="uniA759" format="2">
  <advance width="1651"/>
  <unicode hex="A759"/>
  <outline>
    <contour>
      <point x="1503" y="901" type="curve" smooth="yes"/>
      <point x="1503" y="819"/>
      <point x="1473" y="758"/>
      <point x="1401" y="680" type="curve" smooth="yes"/>
      <point x="383" y="-416" type="line"/>
      <point x="506" y="-518" type="line"/>
      <point x="1522" y="582" type="line" smooth="yes"/>
      <point x="1602" y="670"/>
      <point x="1659" y="774"/>
      <point x="1659" y="903" type="curve" smooth="yes"/>
      <point x="1659" y="1090"/>
      <point x="1516" y="1239"/>
      <point x="1286" y="1239" type="curve"/>
      <point x="1284" y="1081" type="line"/>
      <point x="1415" y="1081"/>
      <point x="1503" y="1016"/>
    </contour>
    <component base="q"/>
  </outline>
</glyph>
<glyph name="uniA760" format="2">
  <advance width="2128"/>
  <unicode hex="A760"/>
  <outline>
    <contour>
      <point x="1804" y="279" type="curve" smooth="yes"/>
      <point x="2097" y="1462" type="line"/>
      <point x="1716" y="1462" type="line"/>
      <point x="1554" y="727" type="line" smooth="yes"/>
      <point x="1538" y="653"/>
      <point x="1495" y="442"/>
      <point x="1483" y="342" type="curve"/>
      <point x="1464" y="502"/>
      <point x="1401" y="795"/>
      <point x="1374" y="909" type="curve" smooth="yes"/>
      <point x="1249" y="1462" type="line"/>
      <point x="883" y="1462" type="line"/>
      <point x="754" y="909" type="line" smooth="yes"/>
      <point x="725" y="791"/>
      <point x="666" y="508"/>
      <point x="645" y="342" type="curve"/>
      <point x="633" y="438"/>
      <point x="588" y="657"/>
      <point x="571" y="729" type="curve" smooth="yes"/>
      <point x="412" y="1462" type="line"/>
      <point x="31" y="1462" type="line"/>
      <point x="393" y="0" type="line"/>
      <point x="860" y="0" type="line"/>
      <point x="1001" y="637" type="line" smooth="yes"/>
      <point x="1012" y="684"/>
      <point x="1057" y="895"/>
      <point x="1067" y="995" type="curve"/>
      <point x="1077" y="895"/>
      <point x="1110" y="733"/>
      <point x="1130" y="637" type="curve" smooth="yes"/>
      <point x="1270" y="0" type="line"/>
      <point x="1255" y="-39" type="line" smooth="yes"/>
      <point x="1223" y="-123"/>
      <point x="1178" y="-162"/>
      <point x="1065" y="-162" type="curve" smooth="yes"/>
      <point x="1008" y="-162"/>
      <point x="915" y="-143"/>
      <point x="872" y="-125" type="curve"/>
      <point x="872" y="-463" type="line"/>
      <point x="942" y="-483"/>
      <point x="1030" y="-494"/>
      <point x="1102" y="-494" type="curve" smooth="yes"/>
      <point x="1493" y="-494"/>
      <point x="1675" y="-246"/>
    </contour>
  </outline>
</glyph>
<glyph name="uniA797" format="2">
  <advance width="1880"/>
  <unicode hex="A797"/>
  <outline>
    <contour>
      <point x="698" y="1556" type="line"/>
      <point x="698" y="0" type="line" smooth="yes"/>
      <point x="1004" y="0" type="line"/>
      <point x="1065" y="111" type="line"/>
      <point x="1090" y="111" type="line"/>
      <point x="1147" y="47"/>
      <point x="1219" y="-20"/>
      <point x="1378" y="-20" type="curve"/>
      <point x="1624" y="-20"/>
      <point x="1792" y="182"/>
      <point x="1792" y="569" type="curve" smooth="yes"/>
      <point x="1792" y="915"/>
      <point x="1597" y="1153"/>
      <point x="1124" y="1153" type="curve" smooth="yes"/>
      <point x="508" y="1153"/>
      <point x="88" y="881"/>
      <point x="88" y="272" type="curve" smooth="yes"/>
      <point x="88" y="-213"/>
      <point x="358" y="-422"/>
      <point x="705" y="-422" type="curve" smooth="yes"/>
      <point x="793" y="-422"/>
      <point x="864" y="-408"/>
      <point x="918" y="-391" type="curve"/>
      <point x="918" y="-100" type="line"/>
      <point x="877" y="-106"/>
      <point x="823" y="-117"/>
      <point x="770" y="-117" type="curve" smooth="yes"/>
      <point x="612" y="-117"/>
      <point x="481" y="-29"/>
      <point x="481" y="295" type="curve" smooth="yes"/>
      <point x="481" y="698"/>
      <point x="711" y="838"/>
      <point x="1106" y="838" type="curve" smooth="yes"/>
      <point x="1300" y="838"/>
      <point x="1395" y="735"/>
      <point x="1395" y="557" type="curve" smooth="yes"/>
      <point x="1395" y="391"/>
      <point x="1343" y="295"/>
      <point x="1251" y="295" type="curve"/>
      <point x="1130" y="295"/>
      <point x="1090" y="379"/>
      <point x="1090" y="555" type="curve"/>
      <point x="1090" y="1556" type="line"/>
    </contour>
  </outline>
</glyph>
<glyph name="uniA79F" format="2">
  <advance width="1403"/>
  <unicode hex="A79F"/>
  <outline>
    <contour>
      <point x="563" y="-20" type="curve"/>
      <point x="723" y="-20"/>
      <point x="807" y="55"/>
      <point x="856" y="135" type="curve"/>
      <point x="868" y="135" type="line"/>
      <point x="944" y="0" type="line"/>
      <point x="1253" y="0" type="line"/>
      <point x="1253" y="1133" type="line"/>
      <point x="885" y="1133" type="line"/>
      <point x="885" y="520" type="line" smooth="yes"/>
      <point x="885" y="346"/>
      <point x="819" y="270"/>
      <point x="666" y="270" type="curve" smooth="yes"/>
      <point x="565" y="270"/>
      <point x="520" y="309"/>
      <point x="520" y="367" type="curve" smooth="yes"/>
      <point x="520" y="428"/>
      <point x="559" y="461"/>
      <point x="653" y="461" type="curve" smooth="yes"/>
      <point x="719" y="461" type="line"/>
      <point x="719" y="715" type="line"/>
      <point x="678" y="715" type="line" smooth="yes"/>
      <point x="559" y="715"/>
      <point x="504" y="764"/>
      <point x="504" y="846" type="curve" smooth="yes"/>
      <point x="504" y="1133" type="line"/>
      <point x="135" y="1133" type="line"/>
      <point x="135" y="883" type="line" smooth="yes"/>
      <point x="135" y="698"/>
      <point x="244" y="629"/>
      <point x="381" y="598" type="curve"/>
      <point x="381" y="588" type="line"/>
      <point x="201" y="563"/>
      <point x="129" y="453"/>
      <point x="129" y="322" type="curve" smooth="yes"/>
      <point x="129" y="102"/>
      <point x="297" y="-20"/>
    </contour>
  </outline>
</glyph>
<glyph name="uniA7A5" format="2">
  <advance width="1372"/>
  <unicode hex="A7A5"/>
  <outline>
    <contour>
      <point x="6" y="545" type="line"/>
      <point x="6" y="324" type="line"/>
      <point x="1372" y="514" type="line"/>
      <point x="1372" y="733" type="line"/>
    </contour>
    <component base="n"/>
  </outline>
</glyph>
<glyph name="uniA7FA" format="2">
  <advance width="1796"/>
  <unicode hex="A7FA"/>
  <anchor x="899" y="0" name="bottom"/>
  <anchor x="899" y="1133" name="top"/>
  <outline>
    <contour>
      <point x="1638" y="0" type="line"/>
      <point x="1638" y="1133" type="line"/>
      <point x="1331" y="1133" type="line"/>
      <point x="1331" y="250" type="line"/>
      <point x="1049" y="250" type="line"/>
      <point x="1049" y="1133" type="line"/>
      <point x="748" y="1133" type="line"/>
      <point x="748" y="250" type="line"/>
      <point x="465" y="250" type="line"/>
      <point x="465" y="1133" type="line"/>
      <point x="158" y="1133" type="line"/>
      <point x="158" y="0" type="line"/>
    </contour>
  </outline>
</glyph>
<glyph name="uniAB3F" format="2">
  <advance width="1305"/>
  <unicode hex="AB3F"/>
  <outline>
    <contour>
      <point x="389" y="549" type="curve"/>
      <point x="106" y="358" type="line"/>
      <point x="129" y="279"/>
      <point x="193" y="178"/>
      <point x="254" y="127" type="curve"/>
      <point x="190" y="31" type="line"/>
      <point x="379" y="-94" type="line"/>
      <point x="442" y="12" type="line"/>
      <point x="494" y="-8"/>
      <point x="565" y="-20"/>
      <point x="647" y="-20" type="curve" smooth="yes"/>
      <point x="989" y="-20"/>
      <point x="1217" y="180"/>
      <point x="1217" y="567" type="curve" smooth="yes"/>
      <point x="1217" y="754"/>
      <point x="1161" y="901"/>
      <point x="1063" y="995" type="curve"/>
      <point x="1133" y="1102" type="line"/>
      <point x="928" y="1210" type="line"/>
      <point x="872" y="1120" type="line"/>
      <point x="821" y="1139"/>
      <point x="748" y="1151"/>
      <point x="666" y="1151" type="curve" smooth="yes"/>
      <point x="498" y="1151"/>
      <point x="401" y="1118"/>
      <point x="289" y="1067" type="curve"/>
      <point x="289" y="754" type="line"/>
      <point x="387" y="809"/>
      <point x="494" y="842"/>
      <point x="606" y="842" type="curve" smooth="yes"/>
      <point x="637" y="842"/>
      <point x="670" y="838"/>
      <point x="688" y="831" type="curve"/>
      <point x="457" y="446" type="line"/>
      <point x="438" y="465"/>
      <point x="401" y="510"/>
    </contour>
    <contour>
      <point x="848" y="557" type="curve" smooth="yes"/>
      <point x="848" y="346"/>
      <point x="770" y="289"/>
      <point x="657" y="289" type="curve" smooth="yes"/>
      <point x="645" y="289"/>
      <point x="635" y="291"/>
      <point x="625" y="293" type="curve"/>
      <point x="844" y="655" type="line"/>
      <point x="846" y="633"/>
      <point x="848" y="602"/>
    </contour>
  </outline>
</glyph>
<glyph name="uniAB42" format="2">
  <advance width="2007"/>
  <unicode hex="AB42"/>
  <outline>
    <contour>
      <point x="1008" y="686" type="line"/>
      <point x="1008" y="440" type="line"/>
      <point x="1714" y="440" type="line"/>
      <point x="1714" y="686" type="line"/>
    </contour>
    <component base="oe" xScale="-1" yScale="-1" xOffset="2007" yOffset="1133"/>
  </outline>
</glyph>
<glyph name="uniAB58" format="2">
  <advance width="1456"/>
  <unicode hex="AB58"/>
  <outline>
    <contour>
      <point x="-193" y="-492" type="line"/>
      <point x="254" y="-492" type="line"/>
      <point x="651" y="283" type="line"/>
      <point x="672" y="242" type="line" smooth="yes"/>
      <point x="750" y="84"/>
      <point x="864" y="-25"/>
      <point x="1079" y="-25" type="curve" smooth="yes"/>
      <point x="1317" y="-25"/>
      <point x="1430" y="133"/>
      <point x="1430" y="330" type="curve" smooth="yes"/>
      <point x="1430" y="498"/>
      <point x="1319" y="647"/>
      <point x="1112" y="647" type="curve" smooth="yes"/>
      <point x="1042" y="647"/>
      <point x="969" y="629"/>
      <point x="920" y="588" type="curve"/>
      <point x="907" y="600" type="line"/>
      <point x="1272" y="1130" type="line"/>
      <point x="825" y="1130" type="line"/>
      <point x="649" y="819" type="line"/>
      <point x="477" y="1130" type="line"/>
      <point x="33" y="1130" type="line"/>
      <point x="408" y="526" type="line"/>
    </contour>
    <contour>
      <point x="1188" y="315" type="curve" smooth="yes"/>
      <point x="1188" y="238"/>
      <point x="1141" y="209"/>
      <point x="1085" y="209" type="curve" smooth="yes"/>
      <point x="1020" y="209"/>
      <point x="983" y="252"/>
      <point x="983" y="313" type="curve" smooth="yes"/>
      <point x="983" y="377"/>
      <point x="1016" y="418"/>
      <point x="1085" y="418" type="curve" smooth="yes"/>
      <point x="1151" y="418"/>
      <point x="1188" y="381"/>
    </contour>
  </outline>
</glyph>
<glyph name="uniFE22" format="2">
  <unicode hex="FE22"/>
  <anchor x="0" y="1133" name="_top"/>
  <outline>
    <contour>
      <point x="0" y="1290" type="curve"/>
      <point x="0" y="1544" type="line"/>
      <point x="-137" y="1569"/>
      <point x="-287" y="1589"/>
      <point x="-463" y="1589" type="curve"/>
      <point x="-643" y="1589"/>
      <point x="-807" y="1475"/>
      <point x="-823" y="1243" type="curve"/>
      <point x="-643" y="1243" type="line"/>
      <point x="-612" y="1313"/>
      <point x="-537" y="1343"/>
      <point x="-481" y="1343" type="curve"/>
      <point x="-317" y="1343"/>
      <point x="-168" y="1321"/>
    </contour>
  </outline>
</glyph>
<glyph name="circumflexcomb.sc" format="2">
  <advance width="1251"/>
  <anchor x="625" y="1210" name="_top"/>
  <anchor x="629" y="1655" name="top"/>
  <outline>
    <contour>
      <point x="858" y="1655" type="curve"/>
      <point x="391" y="1655" type="line"/>
      <point x="346" y="1561"/>
      <point x="272" y="1432"/>
      <point x="219" y="1360" type="curve"/>
      <point x="219" y="1327" type="line"/>
      <point x="475" y="1327" type="line"/>
      <point x="532" y="1374"/>
      <point x="561" y="1409"/>
      <point x="623" y="1483" type="curve"/>
      <point x="682" y="1411"/>
      <point x="725" y="1362"/>
      <point x="774" y="1327" type="curve"/>
      <point x="1030" y="1327" type="line"/>
      <point x="1030" y="1360" type="line"/>
      <point x="991" y="1415"/>
      <point x="903" y="1563"/>
    </contour>
  </outline>
</glyph>
<glyph name="circumflexhookcomb" format="2">
  <outline>
    <contour>
      <point x="-506" y="1563" type="curve"/>
      <point x="-907" y="1563" type="line"/>
      <point x="-969" y="1470"/>
      <point x="-1055" y="1348"/>
      <point x="-1122" y="1270" type="curve"/>
      <point x="-1122" y="1241" type="line"/>
      <point x="-918" y="1241" type="line"/>
      <point x="-850" y="1286"/>
      <point x="-778" y="1343"/>
      <point x="-707" y="1407" type="curve"/>
      <point x="-637" y="1343"/>
      <point x="-563" y="1286"/>
      <point x="-496" y="1241" type="curve"/>
      <point x="-291" y="1241" type="line"/>
      <point x="-291" y="1270" type="line"/>
      <point x="-358" y="1348"/>
      <point x="-444" y="1470"/>
    </contour>
    <contour>
      <point x="-285" y="1784" type="curve" smooth="yes"/>
      <point x="-332" y="1784"/>
      <point x="-373" y="1778"/>
      <point x="-385" y="1774" type="curve"/>
      <point x="-385" y="1622" type="line"/>
      <point x="-373" y="1626"/>
      <point x="-342" y="1634"/>
      <point x="-313" y="1634" type="curve" smooth="yes"/>
      <point x="-256" y="1634"/>
      <point x="-246" y="1606"/>
      <point x="-246" y="1589" type="curve" smooth="yes"/>
      <point x="-246" y="1567"/>
      <point x="-266" y="1540"/>
      <point x="-367" y="1540" type="curve"/>
      <point x="-356" y="1432" type="line"/>
      <point x="-201" y="1432" type="line"/>
      <point x="-195" y="1481" type="line"/>
      <point x="-111" y="1497"/>
      <point x="-70" y="1548"/>
      <point x="-70" y="1624" type="curve" smooth="yes"/>
      <point x="-70" y="1739"/>
      <point x="-160" y="1784"/>
    </contour>
  </outline>
</glyph>
<glyph name="circumflextildecomb" format="2">
  <outline>
    <contour>
      <point x="-535" y="1518" type="curve"/>
      <point x="-870" y="1518" type="line"/>
      <point x="-934" y="1425"/>
      <point x="-1040" y="1339"/>
      <point x="-1118" y="1270" type="curve"/>
      <point x="-1118" y="1241" type="line"/>
      <point x="-946" y="1241" type="line"/>
      <point x="-862" y="1274"/>
      <point x="-776" y="1309"/>
      <point x="-702" y="1372" type="curve"/>
      <point x="-635" y="1309"/>
      <point x="-549" y="1272"/>
      <point x="-459" y="1241" type="curve"/>
      <point x="-287" y="1241" type="line"/>
      <point x="-287" y="1270" type="line"/>
      <point x="-375" y="1348"/>
      <point x="-471" y="1425"/>
    </contour>
    <contour>
      <point x="-344" y="1808" type="curve"/>
      <point x="-471" y="1808" type="line"/>
      <point x="-492" y="1743"/>
      <point x="-516" y="1733"/>
      <point x="-569" y="1733" type="curve" smooth="yes"/>
      <point x="-637" y="1733"/>
      <point x="-754" y="1806"/>
      <point x="-854" y="1806" type="curve" smooth="yes"/>
      <point x="-987" y="1806"/>
      <point x="-1049" y="1688"/>
      <point x="-1059" y="1550" type="curve"/>
      <point x="-934" y="1550" type="line"/>
      <point x="-915" y="1616"/>
      <point x="-891" y="1622"/>
      <point x="-838" y="1622" type="curve" smooth="yes"/>
      <point x="-762" y="1622"/>
      <point x="-645" y="1552"/>
      <point x="-551" y="1552" type="curve" smooth="yes"/>
      <point x="-420" y="1552"/>
      <point x="-356" y="1675"/>
    </contour>
  </outline>
</glyph>
<glyph name="commaaccent2" format="2">
  <advance width="965"/>
  <anchor x="508" y="0" name="_bottom"/>
  <anchor x="510" y="-453" name="bottom"/>
  <outline>
    <contour>
      <point x="707" y="-125" type="line"/>
      <point x="352" y="-125" type="line"/>
      <point x="350" y="-203"/>
      <point x="328" y="-338"/>
      <point x="305" y="-424" type="curve"/>
      <point x="305" y="-453" type="line"/>
      <point x="539" y="-453" type="line"/>
      <point x="616" y="-342"/>
      <point x="659" y="-258"/>
      <point x="707" y="-147" type="curve"/>
    </contour>
  </outline>
</glyph>
<glyph name="cyrillichookleft" format="2">
  <advance width="422"/>
  <outline>
    <contour>
      <point x="190" y="-199" type="curve" smooth="yes"/>
      <point x="190" y="-248"/>
      <point x="160" y="-266"/>
      <point x="113" y="-266" type="curve" smooth="yes"/>
      <point x="78" y="-266"/>
      <point x="23" y="-256"/>
      <point x="-6" y="-244" type="curve"/>
      <point x="-6" y="-465" type="line"/>
      <point x="39" y="-479"/>
      <point x="94" y="-492"/>
      <point x="168" y="-492" type="curve" smooth="yes"/>
      <point x="324" y="-492"/>
      <point x="444" y="-403"/>
      <point x="444" y="-260" type="curve" smooth="yes"/>
      <point x="444" y="-168"/>
      <point x="395" y="-88"/>
      <point x="270" y="0" type="curve"/>
      <point x="57" y="0" type="line"/>
      <point x="150" y="-88"/>
      <point x="190" y="-137"/>
    </contour>
  </outline>
</glyph>
<glyph name="e.sc" format="2">
  <advance width="940"/>
  <anchor x="496" y="0" name="bottom"/>
  <anchor x="502" y="1210" name="top"/>
  <anchor x="899" y="1210" name="topright"/>
  <outline>
    <contour>
      <point x="123" y="1210" type="line"/>
      <point x="123" y="0" type="line"/>
      <point x="864" y="0" type="line"/>
      <point x="864" y="297" type="line"/>
      <point x="512" y="297" type="line"/>
      <point x="512" y="467" type="line"/>
      <point x="836" y="467" type="line"/>
      <point x="836" y="760" type="line"/>
      <point x="512" y="760" type="line"/>
      <point x="512" y="913" type="line"/>
      <point x="864" y="913" type="line"/>
      <point x="864" y="1210" type="line"/>
    </contour>
  </outline>
</glyph>
<glyph name="exclamdown.sc" format="2">
  <advance width="518"/>
  <outline>
    <contour>
      <point x="465" y="786" type="curve" smooth="yes"/>
      <point x="465" y="911"/>
      <point x="369" y="963"/>
      <point x="260" y="963" type="curve" smooth="yes"/>
      <point x="156" y="963"/>
      <point x="61" y="911"/>
      <point x="61" y="786" type="curve" smooth="yes"/>
      <point x="61" y="655"/>
      <point x="154" y="610"/>
      <point x="260" y="610" type="curve" smooth="yes"/>
      <point x="371" y="610"/>
      <point x="465" y="655"/>
    </contour>
    <contour>
      <point x="471" y="-266" type="line"/>
      <point x="426" y="487" type="line"/>
      <point x="94" y="487" type="line"/>
      <point x="47" y="-266" type="line"/>
    </contour>
  </outline>
</glyph>
<glyph name="n.sc" format="2">
  <advance width="1477"/>
  <anchor x="739" y="0" name="bottom"/>
  <anchor x="739" y="1210" name="top"/>
  <anchor x="1436" y="1210" name="topright"/>
  <outline>
    <contour>
      <point x="1354" y="1210" type="line"/>
      <point x="1010" y="1210" type="line"/>
      <point x="1010" y="719" type="line" smooth="yes"/>
      <point x="1010" y="600"/>
      <point x="1022" y="401"/>
      <point x="1022" y="426" type="curve"/>
      <point x="1018" y="426" type="line"/>
      <point x="637" y="1210" type="line"/>
      <point x="123" y="1210" type="line"/>
      <point x="123" y="0" type="line"/>
      <point x="467" y="0" type="line"/>
      <point x="467" y="489" type="line" smooth="yes"/>
      <point x="467" y="629"/>
      <point x="446" y="829"/>
      <point x="449" y="799" type="curve"/>
      <point x="457" y="799" type="line"/>
      <point x="838" y="0" type="line"/>
      <point x="1354" y="0" type="line"/>
    </contour>
  </outline>
</glyph>
<glyph name="nine.lf" format="2">
  <advance width="1260"/>
  <outline>
    <contour>
      <point x="1153" y="793" type="curve" smooth="yes"/>
      <point x="1153" y="1278"/>
      <point x="905" y="1477"/>
      <point x="592" y="1477" type="curve" smooth="yes"/>
      <point x="270" y="1477"/>
      <point x="74" y="1284"/>
      <point x="74" y="958" type="curve" smooth="yes"/>
      <point x="74" y="653"/>
      <point x="231" y="481"/>
      <point x="477" y="481" type="curve" smooth="yes"/>
      <point x="672" y="481"/>
      <point x="731" y="553"/>
      <point x="784" y="651" type="curve"/>
      <point x="797" y="651" type="line"/>
      <point x="786" y="463"/>
      <point x="698" y="287"/>
      <point x="344" y="287" type="curve" smooth="yes"/>
      <point x="283" y="287"/>
      <point x="229" y="293"/>
      <point x="172" y="303" type="curve"/>
      <point x="172" y="-10" type="line"/>
      <point x="227" y="-18"/>
      <point x="317" y="-20"/>
      <point x="377" y="-20" type="curve" smooth="yes"/>
      <point x="946" y="-20"/>
      <point x="1153" y="250"/>
    </contour>
    <contour>
      <point x="602" y="1161" type="curve" smooth="yes"/>
      <point x="702" y="1161"/>
      <point x="760" y="1049"/>
      <point x="760" y="944" type="curve" smooth="yes"/>
      <point x="760" y="866"/>
      <point x="694" y="784"/>
      <point x="598" y="784" type="curve" smooth="yes"/>
      <point x="504" y="784"/>
      <point x="457" y="854"/>
      <point x="457" y="963" type="curve" smooth="yes"/>
      <point x="457" y="1102"/>
      <point x="516" y="1161"/>
    </contour>
  </outline>
</glyph>
<glyph name="t.sc" format="2">
  <advance width="1042"/>
  <anchor x="522" y="0" name="bottom"/>
  <anchor x="522" y="606" name="center"/>
  <anchor x="520" y="1210" name="top"/>
  <anchor x="1001" y="1210" name="topright"/>
  <outline>
    <contour>
      <point x="991" y="1210" type="line"/>
      <point x="51" y="1210" type="line"/>
      <point x="51" y="897" type="line"/>
      <point x="328" y="897" type="line"/>
      <point x="328" y="0" type="line"/>
      <point x="715" y="0" type="line"/>
      <point x="715" y="897" type="line"/>
      <point x="991" y="897" type="line"/>
    </contour>
  </outline>
</glyph>
<glyph name="three.osf" format="2">
  <advance width="1200"/>
  <outline>
    <contour>
      <point x="1073" y="809" type="curve" smooth="yes"/>
      <point x="1073" y="1026"/>
      <point x="891" y="1153"/>
      <point x="588" y="1153" type="curve" smooth="yes"/>
      <point x="381" y="1153"/>
      <point x="221" y="1110"/>
      <point x="72" y="1006" type="curve"/>
      <point x="236" y="741" type="line"/>
      <point x="336" y="805"/>
      <point x="432" y="836"/>
      <point x="526" y="836" type="curve" smooth="yes"/>
      <point x="625" y="836"/>
      <point x="690" y="801"/>
      <point x="690" y="721" type="curve" smooth="yes"/>
      <point x="690" y="618"/>
      <point x="590" y="575"/>
      <point x="389" y="575" type="curve" smooth="yes"/>
      <point x="297" y="575" type="line"/>
      <point x="297" y="279" type="line"/>
      <point x="387" y="279" type="line" smooth="yes"/>
      <point x="602" y="279"/>
      <point x="698" y="238"/>
      <point x="698" y="131" type="curve" smooth="yes"/>
      <point x="698" y="27"/>
      <point x="623" y="-20"/>
      <point x="449" y="-20" type="curve" smooth="yes"/>
      <point x="336" y="-20"/>
      <point x="199" y="10"/>
      <point x="70" y="76" type="curve"/>
      <point x="70" y="-252" type="line"/>
      <point x="231" y="-315"/>
      <point x="344" y="-332"/>
      <point x="506" y="-332" type="curve" smooth="yes"/>
      <point x="885" y="-332"/>
      <point x="1116" y="-166"/>
      <point x="1116" y="106" type="curve" smooth="yes"/>
      <point x="1116" y="297"/>
      <point x="1008" y="416"/>
      <point x="764" y="446" type="curve"/>
      <point x="764" y="453" type="line"/>
      <point x="975" y="512"/>
      <point x="1073" y="621"/>
    </contour>
  </outline>
</glyph>
<glyph name="uni029Ddotless" format="2">
  <advance width="688"/>
  <anchor x="106" y="-492" name="bottom"/>
  <anchor x="332" y="1133" name="top"/>
  <outline>
    <contour>
      <point x="125" y="-492" type="curve"/>
      <point x="412" y="-492"/>
      <point x="510" y="-313"/>
      <point x="532" y="-164" type="curve"/>
      <point x="668" y="-164" type="line"/>
      <point x="668" y="0" type="line"/>
      <point x="537" y="0" type="line"/>
      <point x="537" y="1130" type="line"/>
      <point x="150" y="1130" type="line"/>
      <point x="150" y="0" type="line"/>
      <point x="117" y="0" type="line" smooth="yes"/>
      <point x="-86" y="0"/>
      <point x="-180" y="-106"/>
      <point x="-180" y="-254" type="curve"/>
      <point x="-180" y="-367"/>
      <point x="-96" y="-492"/>
    </contour>
    <contour>
      <point x="74" y="-311" type="curve"/>
      <point x="43" y="-311"/>
      <point x="12" y="-285"/>
      <point x="12" y="-244" type="curve" smooth="yes"/>
      <point x="12" y="-201"/>
      <point x="41" y="-164"/>
      <point x="121" y="-164" type="curve"/>
      <point x="150" y="-164" type="line"/>
      <point x="150" y="-225" type="line" smooth="yes"/>
      <point x="150" y="-285"/>
      <point x="119" y="-311"/>
    </contour>
  </outline>
</glyph>
<glyph name="uni02E5_uni02E5_uni02E9" format="2">
  <advance width="1110"/>
  <outline>
    <contour>
      <point x="815" y="0" type="line"/>
      <point x="950" y="0" type="line"/>
      <point x="950" y="1409" type="line"/>
      <point x="815" y="1409" type="line"/>
      <point x="815" y="453" type="line"/>
      <point x="526" y="1409" type="line"/>
      <point x="160" y="1409" type="line"/>
      <point x="160" y="1274" type="line"/>
      <point x="430" y="1274" type="line"/>
    </contour>
  </outline>
</glyph>
